<svg width="214" height="26" viewBox="0 0 214 26" fill="none" xmlns="http://www.w3.org/2000/svg">
<path d="M19.3566 25.5359H24.6846L15.6486 0.371886H9.78059L0.744594 25.5359H6.03659L7.69259 20.7479H17.7006L19.3566 25.5359ZM16.3326 16.7159H9.06059L12.6966 6.20389L16.3326 16.7159ZM45.6301 18.2639C45.6301 9.40789 32.7421 12.2159 32.7421 7.17589C32.7421 5.12389 34.2181 4.15189 36.1981 4.22389C38.3581 4.25989 39.6901 5.55589 39.7981 7.21189H45.3421C45.0181 2.67589 41.4901 0.0478885 36.3421 0.0478885C31.1581 0.0478885 27.4861 2.78389 27.4861 7.31989C27.4501 16.4279 40.4101 13.1519 40.4101 18.5879C40.4101 20.3879 39.0061 21.6479 36.6301 21.6479C34.2901 21.6479 32.9581 20.3159 32.8141 18.2999H27.4141C27.4861 23.0519 31.5181 25.7879 36.7381 25.7879C42.4621 25.7879 45.6301 22.2239 45.6301 18.2639ZM76.1458 18.2639C76.1458 9.40789 63.2578 12.2159 63.2578 7.17589C63.2578 5.12389 64.7338 4.15189 66.7138 4.22389C68.8738 4.25989 70.2058 5.55589 70.3138 7.21189H75.8578C75.5338 2.67589 72.0058 0.0478885 66.8578 0.0478885C61.6738 0.0478885 58.0018 2.78389 58.0018 7.31989C57.9658 16.4279 70.9258 13.1519 70.9258 18.5879C70.9258 20.3879 69.5218 21.6479 67.1458 21.6479C64.8058 21.6479 63.4738 20.3159 63.3298 18.2999H57.9298C58.0018 23.0519 62.0338 25.7879 67.2538 25.7879C72.9778 25.7879 76.1458 22.2239 76.1458 18.2639ZM95.0953 0.371886H80.5153V25.5359H95.0953V21.4319H85.5553V14.7719H94.0153V10.7759H85.5553V4.47589H95.0953V0.371886ZM114.255 0.371886H99.6754V25.5359H114.255V21.4319H104.715V14.7719H113.175V10.7759H104.715V4.47589H114.255V0.371886ZM135.288 0.371886V17.6519L123.876 0.371886H118.836V25.5359H123.876V8.29189L135.288 25.5359H140.328V0.371886H135.288ZM178.402 12.8999C178.402 5.37589 172.714 0.0478885 165.55 0.0478885C158.458 0.0478885 152.662 5.37589 152.662 12.8999C152.662 20.4599 158.458 25.7879 165.55 25.7879C172.678 25.7879 178.402 20.4599 178.402 12.8999ZM157.846 12.8999C157.846 7.78789 160.978 4.58389 165.55 4.58389C170.086 4.58389 173.218 7.78789 173.218 12.8999C173.218 18.0119 170.086 21.2879 165.55 21.2879C160.978 21.2879 157.846 18.0119 157.846 12.8999ZM198.604 0.371886V17.6519L187.192 0.371886H182.152V25.5359H187.192V8.29189L198.604 25.5359H203.644V0.371886H198.604ZM213.917 22.8359C213.917 21.1799 212.621 19.8839 210.857 19.8839C209.021 19.8839 207.725 21.1799 207.725 22.8359C207.725 24.4919 209.021 25.7879 210.857 25.7879C212.621 25.7879 213.917 24.4919 213.917 22.8359ZM213.917 7.93189C213.917 6.27589 212.621 4.97989 210.857 4.97989C209.021 4.97989 207.725 6.27589 207.725 7.93189C207.725 9.58789 209.021 10.8839 210.857 10.8839C212.621 10.8839 213.917 9.58789 213.917 7.93189Z" fill="#282623"/>
</svg>
