<svg width="50" height="50" viewBox="0 0 50 50" fill="none" xmlns="http://www.w3.org/2000/svg">
<g clip-path="url(#clip0_69_219)">
<path d="M12.4434 18.681C11.1678 18.3851 9.94502 18.0675 8.71053 17.8293C7.96297 17.6994 7.20732 17.6193 6.44876 17.5896C3.36252 17.4063 1.23008 15.7836 0.398261 12.8356C0.164506 11.9279 0.0309786 10.9981 -1.08178e-05 10.0623C-0.0514481 9.01857 0.44088 8.45554 1.45787 8.19424C2.97453 7.80926 4.49316 7.43343 6.01374 7.06674C6.73979 6.90856 7.3733 6.47606 7.77731 5.86272C8.37692 4.95898 9.00299 4.0639 9.60848 3.16017C10.214 2.25643 11.0223 1.58801 12.0863 1.35847C14.2555 0.889278 16.4349 0.440297 18.6247 0.0736048C20.5955 -0.256995 22.1606 0.554346 23.4128 2.01245C24.8075 3.63802 25.6172 5.55088 25.9582 7.61244C26.1833 9.08173 26.2713 10.5681 26.2213 12.0532C26.1948 13.1706 25.557 14.1191 24.6825 14.8308C24.2417 15.1874 24.202 15.5382 24.2931 16.0261C24.5679 17.5131 24.5562 17.516 26.1257 17.516C30.5346 17.516 34.9436 17.516 39.3525 17.516C41.4349 17.516 42.3711 18.4284 42.3726 20.4611C42.3726 25.154 42.3726 29.8469 42.3726 34.5397C42.3726 36.5695 41.4188 37.5022 39.3672 37.5065H37.6227C37.802 38.4506 37.9269 39.2808 38.1253 40.0921C38.2532 40.6118 38.7058 40.7114 39.182 40.6248C42.8428 39.9564 46.3171 37.9367 46.6007 33.0499C46.6007 32.9301 46.6139 32.8102 46.611 32.689C46.5963 32.2053 46.7697 31.8155 47.2753 31.6972C47.8367 31.5658 48.1688 31.9108 48.3246 32.3786C48.8228 33.8829 49.3974 35.3742 49.7487 36.9131C50.5923 40.6147 49.2578 43.5814 46.2892 45.8769C44.408 47.3307 42.208 48.0424 39.8419 48.2301C39.107 48.2892 38.4971 48.4351 37.9063 48.9144C37.0281 49.6279 35.92 50.0112 34.7804 49.9957C26.9678 49.9957 19.1547 49.9957 11.3412 49.9957C10.4741 49.9957 10.1875 49.6954 10.2507 48.8479C10.3712 47.2498 11.3882 46.2724 12.7491 45.6199C13.3766 45.3182 13.5721 44.963 13.5618 44.3018C13.5236 41.7985 13.5618 39.2952 13.5353 36.7948C13.5353 36.48 13.4619 36.0989 13.2738 35.8636C9.79659 31.5225 9.46298 26.7411 11.1927 21.6752C11.5146 20.7224 11.9672 19.81 12.4434 18.681ZM20.9923 45.2446C20.5881 44.4809 20.1252 43.7908 19.8416 43.0357C19.2008 41.3351 19.4301 39.6272 19.9885 37.9425C20.0929 37.6321 20.2633 37.3491 19.821 37.0864C18.9495 36.5652 18.6291 35.7438 18.632 34.7549C18.6423 29.9171 18.632 25.0823 18.632 20.2402C18.632 18.5396 19.6314 17.5478 21.3553 17.5131C21.8079 17.5045 22.2621 17.5131 22.7897 17.5131C22.6897 16.901 22.6148 16.4361 22.5663 16.1344C21.2598 15.9525 20.0414 15.8688 18.8701 15.5959C17.6988 15.3231 16.9934 14.5146 16.9596 13.3164C16.9052 11.4165 16.9317 9.51375 16.939 7.61244C16.939 7.12593 17.183 6.77367 17.6974 6.69427C18.2117 6.61487 18.6262 7.05374 18.6306 7.72938C18.6409 9.43724 18.6526 11.148 18.6306 12.8558C18.6203 13.5156 18.8819 13.9574 19.5226 14.0642C20.2854 14.1912 21.0761 14.3313 21.8359 14.2605C23.5436 14.1003 24.6179 12.8761 24.6002 11.1841C24.6035 10.2221 24.5283 9.26138 24.3754 8.31118C24.008 6.22075 23.2996 4.26024 21.73 2.70686C21.004 1.98502 20.137 1.56058 19.0847 1.74393C16.9449 2.11351 14.8095 2.51196 12.6756 2.91619C11.9099 3.06056 11.3706 3.53552 10.9503 4.16641C10.3477 5.07303 9.73046 5.96955 9.11762 6.8704C8.59622 7.66663 7.81149 8.26211 6.89553 8.5566C6.33853 8.73417 5.54934 8.7154 5.26864 9.08354C4.96442 9.48055 5.13343 10.2255 5.09081 10.8159C5.01733 11.8482 4.34424 12.4819 3.27875 12.5151C2.91869 12.5252 2.55863 12.5151 2.19122 12.5151C2.35141 14.0887 4.20756 15.7923 5.74186 15.8558C8.14389 15.9357 10.5208 16.3628 12.7961 17.1233C14.0747 17.5564 14.4612 18.4732 13.913 19.6801C13.5339 20.5131 13.1106 21.3345 12.8108 22.1949C11.1942 26.8652 11.5499 31.2337 14.8904 35.1504C15.1284 35.429 15.2416 35.8925 15.2445 36.2707C15.2725 39.2548 15.2357 42.2403 15.2769 45.2215C15.2886 46.0718 15.0329 46.5597 14.1688 46.8095C13.7508 46.9164 13.359 47.1049 13.0169 47.3639C12.6747 47.6229 12.3892 47.9469 12.1774 48.3167H13.0357C14.1129 48.3167 15.1931 48.2748 16.2689 48.3326C16.964 48.3701 17.3638 48.1434 17.7547 47.5674C18.1688 47.0039 18.6795 46.5154 19.264 46.1237C19.7872 45.7527 20.4279 45.5318 20.9923 45.2503V45.2446ZM30.5067 19.1719C27.5674 19.1719 24.6282 19.1719 21.6889 19.1719C20.5632 19.1719 20.3398 19.3827 20.3383 20.4712C20.3383 25.1622 20.3383 29.8526 20.3383 34.5426C20.3383 35.611 20.5543 35.8261 21.6213 35.8261C27.5459 35.8261 33.4705 35.8261 39.3951 35.8261C40.4444 35.8261 40.6795 35.5835 40.6795 34.534C40.6795 29.868 40.6795 25.2002 40.6795 20.5304C40.6795 19.4029 40.4488 19.1705 39.3157 19.169C36.3813 19.1729 33.445 19.1757 30.5067 19.1777V19.1719ZM19.4477 48.0741L19.5271 48.256C19.6832 48.2916 19.8419 48.3152 20.0018 48.3268C23.4539 48.3268 26.909 48.3383 30.3583 48.3268C31.4708 48.3268 31.9911 47.8489 32.185 46.7503C32.2864 46.1728 32.5627 45.7845 33.2138 45.8985C33.8178 46.0039 33.9677 46.4659 33.8854 46.9957C33.8193 47.4129 33.6885 47.8215 33.5738 48.2878C34.9847 48.4235 36.2986 48.3326 37.2685 47.2671C37.4263 47.0754 37.6269 46.9218 37.8547 46.8182C38.0825 46.7145 38.3314 46.6637 38.5824 46.6695C40.7457 46.6059 42.8135 46.1454 44.6358 44.9472C47.1753 43.2581 48.645 41.0175 48.2158 37.8775C48.1409 37.3188 47.9954 36.7688 47.8573 36.0931C47.3576 36.942 47.024 37.6465 46.5654 38.2586C44.8518 40.5685 42.4137 41.6917 39.642 42.2331C37.8226 42.5882 36.5807 41.6989 36.3279 39.8914C36.2589 39.3919 36.1193 38.9025 36.0605 38.4016C35.9782 37.7028 35.6431 37.4791 34.9068 37.4877C31.2592 37.5281 27.6101 37.505 23.9624 37.505C21.7727 37.505 21.5552 37.6812 21.2524 39.8755C20.9188 42.285 21.8403 44.3206 23.9639 45.0728C24.2328 45.168 24.5165 45.643 24.5194 45.9462C24.5194 46.4341 24.0932 46.6088 23.5994 46.6824C22.6598 46.7999 21.7301 46.9837 20.8174 47.2325C20.3221 47.3841 19.9018 47.7854 19.4477 48.0741ZM3.25524 9.4921C2.83198 9.59171 2.43077 9.62347 2.1001 9.79094C1.99703 9.8626 1.91195 9.95641 1.85134 10.0652C1.79073 10.1741 1.75618 10.295 1.75033 10.4189C1.75033 10.5633 2.0516 10.8073 2.23825 10.8275C3.38015 10.9502 3.52712 10.7712 3.25524 9.4921Z" fill="#6BDBD8"/>
<path d="M27.9776 24.6231C26.7828 26.0826 25.394 27.239 23.7157 28.0388C23.5613 28.111 23.4114 28.1933 23.2513 28.2524C22.7677 28.4315 22.3695 28.3102 22.1343 27.8569C21.8992 27.4036 22.0755 27.047 22.465 26.7987C22.9147 26.5099 23.4056 26.2847 23.8626 26.0075C24.9972 25.3232 26.0333 24.5307 26.8519 23.2371C26.5168 22.9643 26.1494 22.6914 25.8143 22.3854C25.419 22.0245 25.3249 21.5812 25.7011 21.1727C26.0774 20.7641 26.5462 20.7944 26.9386 21.1597C30.4819 24.4585 33.6754 28.0085 35.3934 32.608C35.4552 32.7647 35.5043 32.9259 35.5404 33.0902C35.6388 33.581 35.4786 33.9665 34.976 34.1166C34.4734 34.2668 34.1207 34.0286 33.9355 33.5637C33.765 33.1393 33.6328 32.6975 33.4549 32.2788C33.2889 31.8804 33.0861 31.4978 32.8583 31.0228C32.629 31.1961 32.4394 31.3289 32.2616 31.4747C30.9112 32.5927 29.3636 33.4578 27.6954 34.0271C27.1208 34.222 26.6226 34.2567 26.3463 33.6171C26.1303 33.1191 26.4036 32.6961 27.1149 32.455C28.6686 31.9269 30.1041 31.1098 31.3431 30.0484C31.5459 29.8766 31.7722 29.7322 32.0338 29.5416C31.4533 28.7404 30.9669 28.0677 30.451 27.353C30.333 27.4403 30.2224 27.5369 30.1203 27.6418C28.4156 29.904 26.0891 31.3145 23.4761 32.3366C22.925 32.5517 22.4062 32.5993 22.0961 31.9786C21.858 31.5036 22.1226 31.0748 22.8309 30.7947C24.9428 29.9531 26.9062 28.8804 28.3553 27.1062C29.3679 25.8661 29.5604 26.0306 27.9776 24.6231Z" fill="#6BDBD8"/>
<path d="M38.9364 32.9574C39.0026 33.6619 38.8086 34.0618 38.2501 34.1398C37.6917 34.2178 37.383 33.9059 37.2949 33.3718C36.5997 29.0985 34.2674 25.7203 31.2473 22.7218C31.1268 22.602 30.9989 22.4908 30.8769 22.371C30.4978 21.9971 30.3861 21.5727 30.7711 21.1598C31.1562 20.7469 31.6323 20.783 32.0086 21.1497C32.8227 21.9466 33.6457 22.7377 34.3776 23.6039C36.5159 26.1347 38.1267 28.9455 38.8056 32.2024C38.8688 32.5142 38.9144 32.8232 38.9364 32.9574Z" fill="#6BDBD8"/>
</g>
<defs>
<clipPath id="clip0_69_219">
<rect width="50" height="50" fill="white"/>
</clipPath>
</defs>
</svg>
