<svg width="50" height="50" viewBox="0 0 50 50" fill="none" xmlns="http://www.w3.org/2000/svg">
<g clip-path="url(#clip0_69_228)">
<path d="M26.7288 50.0001C22.1823 49.9059 18.5168 49.2757 15.1748 47.3183C13.5384 46.3621 12.3527 44.9307 11.1915 43.4775C11.0702 43.3326 10.959 43.1675 10.8348 43.0211C9.87005 41.878 8.524 42.007 8.02574 43.434C7.6459 44.5279 7.53325 45.7319 7.42493 46.8982C7.3195 48.0413 7.05953 48.5339 6.3143 48.5049C5.59217 48.4788 5.23977 47.9906 5.35243 46.8808C5.48963 45.545 5.64128 44.1918 5.99801 42.9038C6.40529 41.4187 7.49858 40.5132 9.03094 40.238C10.5633 39.9627 11.645 40.6842 12.5058 41.8317C13.9703 43.7876 15.5561 45.6333 17.9535 46.407C19.7516 46.9865 21.6017 47.5429 23.4677 47.7457C27.8654 48.2253 32.1664 47.7138 36.2045 45.7435C41.723 43.0501 45.2874 38.6993 46.9093 32.7853C48.3218 27.6333 48.433 22.4741 46.4486 17.4279C45.0824 13.9507 42.7672 11.3892 39.0309 10.4083C38.2871 10.2143 37.5243 10.1025 36.7562 10.0751C35.5864 10.036 34.6057 9.65787 33.7825 8.819C31.8472 6.84572 30.2788 4.65366 29.5942 1.9183C29.5339 1.68513 29.4986 1.44618 29.4888 1.20549C29.4628 0.524547 29.8022 0.0536823 30.3755 7.62059e-05C31.0023 -0.0535299 31.3995 0.273902 31.4963 0.882403C31.8097 2.86293 32.8568 4.46967 34.0497 6.00396C34.3891 6.4386 34.7863 6.83123 35.1531 7.24704C35.5763 7.72805 36.0991 7.91784 36.7418 7.95261C41.8833 8.23658 45.5431 10.8169 47.8048 15.3647C49.896 19.575 50.3207 24.0866 49.7993 28.7141C49.2216 33.8806 47.4885 38.5762 43.9573 42.4691C40.5055 46.2737 36.2291 48.6396 31.1511 49.4597C29.4425 49.7364 27.7138 49.8827 26.7288 50.0001Z" fill="#6BDBD8"/>
<path d="M25.8261 46.2055C21.8804 46.1331 18.5456 45.5159 15.6543 43.4528C13.8027 42.1271 12.8192 40.277 13.1427 37.9589C13.4691 35.606 14.9913 34.2036 17.1548 33.4835C17.9565 33.2295 18.783 33.0625 19.6202 32.9851C21.7476 32.7591 23.8908 32.6664 26.0124 32.3925C30.4564 31.8217 34.6072 30.47 37.9521 27.3058C38.7825 26.5191 39.4396 25.5455 40.1762 24.6573C40.4025 24.3467 40.6491 24.0515 40.9142 23.7736C41.9628 22.8057 43.2871 22.9202 44.0844 24.1039C45.0534 25.5426 45.4506 27.1855 45.4853 28.9009C45.5561 32.3158 44.3299 35.2945 42.1909 37.8749C37.825 43.1442 32.2545 46.0375 25.8261 46.2055ZM42.3238 25.2557C42.1828 25.407 42.0497 25.5657 41.9252 25.7309C39.3429 29.7572 35.5387 32.0477 31.0933 33.4255C27.7037 34.4759 24.197 34.6947 20.6947 34.9714C19.6259 35.0555 18.5283 35.2061 17.5173 35.564C14.87 36.513 14.3255 39.4309 16.385 41.3593C16.824 41.7713 17.3184 42.1195 17.8539 42.3937C21.3634 44.1786 25.0751 44.5466 28.8851 43.7512C34.3501 42.6081 38.6496 39.6525 41.6855 34.9468C42.9853 32.9373 43.6121 30.6887 43.3478 28.2576C43.2337 27.2275 42.9766 26.2365 42.3238 25.2557Z" fill="#6BDBD8"/>
<path d="M0 45.2537C0.0563258 42.8226 0.29896 40.4219 1.42692 38.2211C2.78307 35.5698 4.974 34.1456 7.94194 34.0036C9.07423 33.9486 10.0852 33.6168 10.9229 32.8851C12.8553 31.1944 15.0924 30.0411 17.422 29.0472C19.8541 28.0113 21.5656 26.1337 23.2221 24.1618C25.2166 21.7858 26.0976 18.8998 27.1043 16.0572C27.4076 15.198 27.8899 14.4041 28.2178 13.5522C28.3117 13.3102 28.2597 12.8495 28.0893 12.693C25.7785 10.5923 24.6231 7.86704 23.8244 4.94189C23.6384 4.24201 23.499 3.53053 23.407 2.81213C23.3102 2.08773 23.6496 1.60237 24.2317 1.5082C24.7805 1.41403 25.2787 1.80666 25.4116 2.52237C25.8232 4.67965 26.385 6.80941 27.5621 8.69286C28.1625 9.62105 28.8681 10.4763 29.6649 11.2413C30.5214 12.0874 30.8203 12.6814 30.3741 13.797C29.2259 16.6831 28.225 19.6531 26.7966 22.3957C24.6303 26.5625 21.4313 29.7528 16.9757 31.5943C15.4217 32.2375 13.9905 33.2401 12.6127 34.2325C11.2074 35.2467 9.77325 36.0522 8.00982 36.0827C4.80214 36.1392 3.03148 38.5152 2.56932 41.0593C2.2617 42.7588 2.1996 44.5075 2.09994 46.2374C2.03495 47.3443 1.73455 47.8992 1.01531 47.8818C0.332178 47.8659 0.00433276 47.3457 0.00433276 46.2678C0 45.9274 0 45.5912 0 45.2537Z" fill="#6BDBD8"/>
</g>
<defs>
<clipPath id="clip0_69_228">
<rect width="50" height="50" fill="white"/>
</clipPath>
</defs>
</svg>
