<svg width="50" height="50" viewBox="0 0 50 50" fill="none" xmlns="http://www.w3.org/2000/svg">
<g clip-path="url(#clip0_69_196)">
<path d="M18.4876 37.8467C17.0429 39.2808 15.5165 40.7381 14.0551 42.2532C11.6986 44.6704 9.39417 47.1396 7.021 49.5395C6.71089 49.8537 6.07396 50.0792 5.67286 49.9809C4.97837 49.8094 4.89666 48.888 5.51502 48.2577C9.44307 44.2521 13.3841 40.26 17.3382 36.2815C17.5733 36.0721 17.8214 35.8789 18.0809 35.7032C18.7476 35.1904 19.3251 35.2598 19.845 35.9538C20.8664 37.3147 22.1644 38.0067 23.8282 37.4727C25.5421 36.9234 26.4446 35.5856 26.7157 33.8103C26.9794 32.0754 26.4613 30.6085 25.0222 29.6293C24.4662 29.2871 23.8544 29.0539 23.2172 28.9412C21.9694 28.6751 21.3993 28.1296 21.2879 26.8632C21.1282 25.0551 20.2796 23.7443 18.6176 23.1757C16.9556 22.6071 15.4608 22.9984 14.2965 24.3438C13.1322 25.6893 13.1211 27.3393 13.7766 28.9566C14.6437 31.0885 14.5843 31.5492 12.9595 33.1626C9.44617 36.6387 5.93098 40.1167 2.41393 43.5967C2.18924 43.8184 1.97198 44.0458 1.738 44.2559C1.27934 44.6665 0.763109 44.7494 0.321157 44.2945C-0.167219 43.7972 -0.0502315 43.2324 0.395434 42.7621C1.13821 41.991 1.9107 41.247 2.67205 40.4933C5.69515 37.4978 8.70525 34.4907 11.7543 31.5261C12.3114 30.9902 12.3523 30.597 12.0385 29.8876C10.9911 27.5147 11.0821 25.1573 12.7088 23.0967C14.3355 21.0361 16.5007 20.4636 18.911 21.1016C21.3213 21.7396 22.6954 23.4648 23.1337 25.9553C23.2562 26.6531 23.4902 26.894 24.142 27.0213C27.4845 27.6766 29.4789 31.3661 28.4928 34.9958C27.5328 38.5252 24.1049 40.5357 20.9833 39.3232C20.1663 39.0032 19.4402 38.4192 18.4876 37.8467Z" fill="#6BDBD8"/>
<path d="M21.4624 17.1557C21.4939 12.5295 25.6906 9.36825 29.5122 11.1031C29.9976 11.3136 30.4471 11.6039 30.8436 11.9628C31.3264 12.4196 31.6421 12.3483 32.0692 11.8934C35.5355 8.18342 39.0142 4.48307 42.5052 0.792362C42.7429 0.539847 42.9472 0.150472 43.2313 0.0714404C43.6194 -0.0345775 44.1783 -0.0557811 44.455 0.16782C44.6834 0.36058 44.6296 0.93886 44.6407 1.35329C44.6407 1.47473 44.4773 1.61545 44.3696 1.73881C40.6706 5.6634 36.9691 9.58285 33.2651 13.4972C33.2001 13.5666 33.1314 13.6302 33.0608 13.6899C31.3896 15.1838 31.3896 15.1838 29.7647 13.6899C28.2885 12.3233 26.3461 12.3021 24.8958 13.7015C23.6164 14.9371 23.167 16.5023 23.5403 18.2641C23.8857 19.8949 24.9367 20.8722 26.4705 21.2827C27.8911 21.6683 28.7564 22.5549 29.1352 24.0431C29.7777 26.5701 32.0395 27.8096 34.3997 26.9923C36.5797 26.2367 37.5565 23.7578 36.5983 21.3733C36.4664 21.0476 36.2808 20.7488 36.1341 20.4307C35.6884 19.4669 35.7497 18.5186 36.485 17.7552C40.3772 13.7111 44.2829 9.68052 48.2023 5.6634C48.6628 5.18921 49.1939 5.05428 49.6749 5.55353C50.2412 6.14338 49.985 6.71009 49.4892 7.22476C46.4364 10.3757 43.3842 13.5216 40.3326 16.6623C39.718 17.2965 39.1386 17.973 38.4757 18.5552C37.9093 19.0564 37.8424 19.4554 38.2175 20.1724C39.5341 22.6937 39.0123 25.9205 37.1034 27.6901C36.1076 28.5962 34.8586 29.1478 33.5391 29.264C32.2196 29.3802 30.8989 29.0549 29.7703 28.3358C28.5447 27.5262 27.6757 26.3889 27.3433 24.9336C27.1093 23.9139 26.5838 23.4628 25.6535 23.1699C23.0018 22.3391 21.4419 20.0298 21.4624 17.1557Z" fill="#6BDBD8"/>
<path d="M39.1275 32.8348C38.173 32.8348 37.2186 32.8348 36.2641 32.8348C35.6309 32.8348 35.1351 32.6112 35.0775 31.9096C35.0125 31.1385 35.5083 30.8166 36.1731 30.7819C38.173 30.6759 40.173 30.5892 42.1748 30.5043C42.7838 30.4793 43.2072 30.7858 43.2592 31.4296C43.3186 32.1312 42.912 32.5052 42.2657 32.5515C41.2221 32.6228 40.173 32.6517 39.1275 32.6999V32.8348Z" fill="#6BDBD8"/>
<path d="M32.0878 37.5882C31.9133 39.3096 31.7313 41.0328 31.5623 42.7561C31.4918 43.4693 31.2559 44.0592 30.4482 43.9744C29.6404 43.8895 29.5197 43.2804 29.6051 42.5537C29.8131 40.6743 29.9914 38.793 30.1863 36.9116C30.2922 35.89 30.6933 35.3965 31.3432 35.5334C32.1992 35.7165 32.229 36.3873 32.1287 37.1083C32.1064 37.2682 32.0953 37.4282 32.0804 37.5882H32.0878Z" fill="#6BDBD8"/>
<path d="M17.1841 13.7651C17.5555 11.3074 17.8377 9.13889 18.2444 7.00697C18.3094 6.66964 18.9185 6.23593 19.2954 6.21858C19.8915 6.18196 20.2239 6.71397 20.131 7.34815C19.8302 9.46851 19.5368 11.6004 19.1376 13.7092C19.0689 14.0658 18.4635 14.5709 18.1385 14.5477C17.7634 14.5188 17.4236 13.9791 17.1841 13.7651Z" fill="#6BDBD8"/>
<path d="M9.98286 19.1355H7.11574C6.4621 19.1355 5.90316 18.9427 5.91801 18.1427C5.93287 17.4199 6.44539 17.1982 7.07118 17.1905L12.8964 17.123C13.5519 17.123 14.1034 17.3158 14.1108 18.1042C14.1201 18.9523 13.5408 19.1412 12.85 19.1393C11.8937 19.1393 10.9392 19.1393 9.98286 19.1393V19.1355Z" fill="#6BDBD8"/>
<path d="M38.927 40.8923C38.5444 40.6455 38.2306 40.5067 37.9985 40.2812C36.7302 39.061 35.4879 37.8119 34.2233 36.586C33.7294 36.1079 33.501 35.5682 33.9819 34.9957C34.5112 34.3654 35.0831 34.5928 35.5919 35.0921C36.8695 36.347 38.1712 37.5787 39.3986 38.8876C39.6623 39.1671 39.77 39.7415 39.7217 40.1501C39.6865 40.4142 39.2334 40.6224 38.927 40.8923Z" fill="#6BDBD8"/>
<path d="M15.4126 14.6787C15.2622 14.8715 15.0932 15.3052 14.8203 15.3977C14.5027 15.5057 13.9234 15.4632 13.747 15.2377C12.4768 13.6282 11.2475 11.9801 10.0962 10.278C9.92909 10.0313 10.1111 9.31422 10.3655 9.04435C10.566 8.8381 11.3292 8.83039 11.4908 9.03471C12.8018 10.6905 14.0311 12.4157 15.2789 14.1274C15.3384 14.2199 15.3346 14.3703 15.4126 14.6787Z" fill="#6BDBD8"/>
</g>
<defs>
<clipPath id="clip0_69_196">
<rect width="50" height="50" fill="white"/>
</clipPath>
</defs>
</svg>
