<svg width="50" height="50" viewBox="0 0 50 50" fill="none" xmlns="http://www.w3.org/2000/svg">
<g clip-path="url(#clip0_69_247)">
<path d="M47.2638 7.04511C43.6304 1.38269 37.1884 -1.1484 30.8577 0.610346C28.7453 1.21752 26.8003 2.30218 25.1728 3.78072C23.5619 2.84639 22.1389 1.84552 20.5699 1.14694C17.6892 -0.137412 14.6899 -0.319651 11.6589 0.481622C8.85041 1.06016 7.30312 2.30401 6.69923 2.83626L6.68768 2.84494C2.47201 6.05437 0.265936 10.3731 0.0290029 15.6089C-0.278721 22.4183 1.87823 28.5305 5.73995 34.0512C10.5898 40.9705 17.0347 46.0385 24.4706 49.8987C24.7798 50.0607 25.3375 50.0014 25.6654 49.8322C29.9673 47.652 33.9492 44.8896 37.499 41.6228C44.2372 35.4469 48.9643 28.1602 49.8889 18.8024C50.3064 14.5878 49.5696 10.6422 47.2638 7.04511ZM48.4904 17.1088C48.3835 22.2158 46.8694 26.9323 44.2285 31.2728C39.6372 38.8154 33.0464 44.1756 25.3822 48.3237C25.1511 48.4481 24.7191 48.3974 24.4706 48.2644C18.5878 45.0897 13.3333 41.1064 9.02955 35.9517C4.58851 30.632 1.75977 24.6225 1.49538 17.5832C1.2859 11.9829 3.17847 7.33294 7.7322 3.91379C7.83348 3.84675 7.93002 3.77281 8.02115 3.6925C9.43064 2.84892 10.9534 2.21138 12.5431 1.79924C16.857 0.931434 20.6725 2.07115 24.0213 5.06797C24.9748 5.92131 25.0196 5.93577 25.9659 5.05784C30.2018 1.11801 36.3288 0.315293 41.2004 3.24847C46.3753 6.36389 48.6175 11.1571 48.4904 17.1088Z" fill="#6BDBD8" stroke="#6BDBD8" stroke-width="0.3"/>
<path d="M30.7855 27.6252C30.2987 27.3851 30.0776 27.1131 30.0299 26.5462C29.9322 25.2826 29.3655 24.1014 28.4414 23.2352C27.5174 22.369 26.3029 21.8805 25.037 21.8658C22.3484 21.8253 20.0629 23.8777 19.9097 26.5332C19.8736 27.1594 19.5991 27.4632 19.0805 27.7409C17.9521 28.3422 17.0924 29.3483 16.6737 30.5574C16.2549 31.7665 16.3081 33.0894 16.8224 34.261C17.8929 36.7082 20.7043 37.9549 23.2022 37.009C24.4707 36.5259 25.6582 36.5057 26.9151 37.009C27.4355 37.1948 27.9823 37.2959 28.5347 37.3084C28.6444 37.3225 28.756 37.3123 28.8614 37.2786C28.9668 37.2449 29.0636 37.1885 29.145 37.1134C29.2264 37.0383 29.2903 36.9463 29.3324 36.8438C29.3744 36.7413 29.3936 36.6308 29.3885 36.5201C29.4029 35.9908 29.0201 35.8606 28.5607 35.8288C28.2038 35.8042 27.8239 35.7883 27.5017 35.6523C25.8591 34.961 24.2626 35.0275 22.5897 35.6393C20.7693 36.3046 18.8753 35.3501 18.1429 33.5812C17.7892 32.7373 17.7727 31.7896 18.097 30.9339C18.4212 30.0783 19.0614 29.38 19.8852 28.9833C20.8069 28.532 21.2591 27.8826 21.3299 26.8543C21.4744 24.7889 23 23.3353 24.9229 23.3223C26.8458 23.3093 28.3671 24.7151 28.5534 26.7935C28.6445 27.8059 29.0967 28.4698 30.0343 28.9023C32.1522 29.8786 32.8327 32.1884 31.6235 34.1771C31.3345 34.6544 31.1091 35.1143 31.7029 35.4788C32.3256 35.8606 32.6217 35.3558 32.8962 34.9248C34.5288 32.3648 33.5695 29.0006 30.7855 27.6252Z" fill="#6BDBD8" stroke="#6BDBD8" stroke-width="0.3"/>
<path d="M31.3417 21.1166C33.8425 19.6341 35.0011 16.0645 33.8511 13.3917C32.7806 10.904 30.1787 10.1129 27.9451 11.6344C26.0872 12.9 25.3346 14.7672 25.2002 17.0495C25.258 17.4284 25.2984 17.9173 25.4053 18.3772C26.0771 21.2772 28.8857 22.5702 31.3417 21.1166ZM28.1156 13.3845C28.9088 12.5528 29.8695 12.0553 31.0339 12.4791C32.1984 12.9028 32.6448 13.9254 32.7994 15.0825C32.8125 15.2751 32.8125 15.4684 32.7994 15.661C32.814 16.337 32.6901 17.0089 32.4351 17.635C32.1802 18.2612 31.7997 18.8284 31.3171 19.3015C30.55 20.0637 29.6282 20.4585 28.5577 20.1331C27.4872 19.8077 26.9815 18.9428 26.7995 17.9289C26.4975 16.2193 26.8977 14.663 28.1156 13.3845Z" fill="#6BDBD8" stroke="#6BDBD8" stroke-width="0.3"/>
<path d="M18.1832 20.9039C20.4196 22.6251 23.3264 21.8397 24.3333 19.2045C24.5963 18.5174 24.6815 17.7581 24.8491 17.0349C24.7552 15.0332 23.819 13.0734 22.3208 11.9106C19.9761 10.0896 16.9595 10.9762 16.0233 13.7619C15.6084 15.0304 15.593 16.396 15.9794 17.6735C16.3657 18.9511 17.1351 20.0788 18.1832 20.9039ZM17.3799 14.3187C17.9304 12.4385 19.8475 11.8353 21.3818 13.0618C22.643 14.0656 23.2426 15.4237 23.27 17.0133C23.2687 17.2623 23.2528 17.511 23.2223 17.7581C23.0316 18.8573 22.5953 19.7975 21.4641 20.2068C20.3084 20.6262 19.3722 20.159 18.6065 19.339C17.2788 17.9114 16.8266 16.2149 17.3799 14.3187Z" fill="#6BDBD8" stroke="#6BDBD8" stroke-width="0.3"/>
<path d="M34.3582 19.6081C32.3588 20.6336 31.4067 22.3562 31.3157 24.653C31.3475 24.9003 31.3735 25.2127 31.4298 25.5208C31.8488 27.7915 34.0231 28.9529 36.1439 28.0417C38.4078 27.0683 39.7802 24.4707 39.3035 22.0582C38.8267 19.6457 36.5629 18.4756 34.3582 19.6081ZM35.8983 26.5506C34.4435 27.4256 32.9005 26.578 32.8037 24.8858C32.7185 23.4077 33.2689 22.2014 34.4102 21.283C35.1167 20.7146 35.9127 20.4152 36.8157 20.8419C37.5583 21.1948 37.9281 21.944 37.9108 23.4337C37.8732 24.5561 37.2072 25.7551 35.8983 26.5448V26.5506Z" fill="#6BDBD8" stroke="#6BDBD8" stroke-width="0.3"/>
<path d="M18.3582 26.3032C19.3146 23.8445 17.9103 20.6148 15.4428 19.6038C13.2656 18.7114 11.1563 19.7875 10.7113 22.1002C10.5791 22.855 10.5923 23.6283 10.7504 24.3782C11.2155 26.6475 13.2916 28.4511 15.3142 28.4424C16.6997 28.4366 17.8424 27.6339 18.3582 26.3032ZM16.0958 26.7892C15.216 27.2463 14.4011 26.9527 13.6889 26.3756C12.4594 25.379 11.8743 24.0918 12.0997 22.4979C12.3034 21.0516 13.6586 20.3183 14.9472 20.9879C16.4136 21.7502 17.1259 23.0258 17.1995 24.342C17.1995 25.5685 16.9323 26.3539 16.0958 26.7892Z" fill="#6BDBD8" stroke="#6BDBD8" stroke-width="0.3"/>
</g>
<defs>
<clipPath id="clip0_69_247">
<rect width="50" height="50" fill="white"/>
</clipPath>
</defs>
</svg>
