<svg width="50" height="50" viewBox="0 0 50 50" fill="none" xmlns="http://www.w3.org/2000/svg">
<g clip-path="url(#clip0_69_237)">
<path d="M23.8751 29.7653V28.9899C23.8751 25.9575 23.8534 22.9251 23.8924 19.8927C23.9011 19.2169 23.6354 19.0522 23.0389 18.9468C20.4396 18.4848 17.8287 18.0241 15.251 17.4422C14.4957 17.2732 13.7405 16.8112 13.1455 16.2985C12.1462 15.4321 11.2682 14.43 10.3512 13.4813C9.97497 13.1069 9.67859 12.6602 9.48002 12.168C9.28145 11.6758 9.1848 11.1484 9.19594 10.6178C9.19594 10.0879 9.18727 9.55793 9.19594 9.02943C9.22626 7.67784 10.0624 6.82299 11.4198 6.81C13.8026 6.78834 16.1853 6.78256 18.5666 6.81C19.6251 6.82299 20.4757 6.50531 21.166 5.68223C22.0887 4.58912 23.296 4.08083 24.7343 4.09383C26.0816 4.10971 27.429 4.07794 28.7777 4.10249C29.577 4.12831 30.3545 3.84011 30.9439 3.29963C32.0443 2.32926 33.1692 1.38632 34.2653 0.411623C34.6364 0.086723 35.0841 -0.191969 35.4841 0.122823C35.7917 0.369747 36.0068 0.852044 36.0617 1.25781C36.157 1.91916 36.1151 2.60362 36.0834 3.27941C36.0007 4.79463 36.172 6.313 36.5902 7.7717C36.7939 8.46771 36.5137 9.00777 35.9491 9.15939C35.3844 9.31101 34.8573 8.98755 34.7259 8.25977C34.4819 6.89664 34.3144 5.51617 34.1252 4.14437C34.0905 3.89456 34.0978 3.63752 34.0775 3.174C33.4898 3.67362 33.0176 4.02452 32.6046 4.43461C31.3843 5.64613 29.9402 6.16742 28.2218 6.06634C27.0463 5.99847 25.8636 6.06634 24.6852 6.04756C23.8577 6.03312 23.1646 6.3046 22.6447 6.93562C21.5299 8.28577 20.0916 8.82438 18.3702 8.76084C17.3594 8.7233 16.3485 8.73918 15.3376 8.76084C15.1485 8.76084 14.8149 8.93412 14.8033 9.04964C14.6185 10.8835 13.5383 11.7615 11.5859 11.9376C12.2906 12.6596 12.9419 13.2257 13.4632 13.8899C14.4163 15.1072 15.6481 15.6227 17.1557 15.8552C19.6266 16.222 22.0729 16.7563 24.5292 17.2227C25.621 17.4306 25.8203 17.6559 25.8203 18.7562C25.8203 22.7272 25.8203 26.6978 25.8203 30.6678C25.8203 31.9573 25.3336 32.301 24.0874 31.9255C21.836 31.244 19.5832 30.5696 17.2395 29.8649C17.0243 31.3696 16.7947 32.8064 16.6416 34.2504C16.6229 34.4323 16.968 34.7341 17.2077 34.8482C19.3594 35.859 21.5097 36.8857 23.6974 37.8228C24.5812 38.2012 25.0246 38.7181 24.8888 39.6798C24.8007 40.3051 25.0332 40.4856 25.686 40.474C27.7654 40.435 29.4723 41.2668 30.7287 42.9389C31.0175 43.323 31.2457 43.4732 31.7771 43.3721C34.9916 42.7945 37.6979 45.1887 37.4784 48.3756C37.4555 48.6396 37.4071 48.9007 37.334 49.1554C37.178 49.7546 36.7823 50.0838 36.1642 49.938C35.5866 49.8023 35.3989 49.3604 35.4422 48.7828C35.4769 48.2846 35.5433 47.7576 35.4234 47.2868C35.0393 45.7706 33.5721 44.9634 31.9908 45.3215C30.6594 45.6248 30.0818 45.401 29.2904 44.2775C28.4066 43.0212 27.195 42.4119 25.6614 42.4191C25.0953 42.4191 24.8614 42.6371 24.8744 43.2436C24.9105 44.9504 24.8874 46.6601 24.8845 48.3684C24.8928 48.6094 24.8836 48.8507 24.857 49.0904C24.7733 49.6333 24.4657 49.9755 23.8953 49.9683C23.3249 49.9611 23.0288 49.603 22.9537 49.0644C22.9288 48.8246 22.9206 48.5833 22.9292 48.3424C22.9292 45.6955 22.9119 43.0487 22.9422 40.4004C22.9422 39.8314 22.7631 39.5426 22.2461 39.313C20.1147 38.3672 18.0179 37.3449 15.8792 36.4164C13.8358 35.5283 11.8935 35.7261 10.1404 37.1846C9.2898 37.8921 8.41758 38.5737 7.57856 39.2957C6.3843 40.3224 4.96766 40.8134 3.44703 41.0285C2.71356 41.1467 1.96233 40.9879 1.33952 40.5828C0.716718 40.1778 0.266886 39.5555 0.0775547 38.8371C-0.111777 38.1188 -0.0270659 37.3556 0.315205 36.6963C0.657476 36.0369 1.23282 35.5284 1.9293 35.2698C3.16688 34.8366 4.09543 34.08 4.88823 33.0735C6.00884 31.6584 7.17566 30.2822 8.32949 28.8946C9.93098 26.9683 12.2285 26.2954 14.6271 27.0246C17.4566 27.8823 20.2875 28.7333 23.1198 29.5776C23.3509 29.6685 23.5603 29.6974 23.8751 29.7653ZM14.7138 33.9168C14.8481 32.932 14.9896 31.9154 15.1254 30.8974C15.381 28.9639 15.599 29.3971 13.8069 28.8599C13.4252 28.7337 13.0221 28.6847 12.6212 28.7157C12.2204 28.7466 11.8296 28.857 11.4718 29.0404C12.1058 30.4844 12.7455 31.8577 13.2986 33.2583C13.5744 33.9413 13.973 34.1175 14.7138 33.9168ZM4.7496 36.1983C3.9669 36.5406 3.28241 36.8221 2.6138 37.1355C2.11703 37.368 1.89897 37.7925 2.02317 38.3225C2.15458 38.8899 2.57192 39.2134 3.14089 39.1167C3.82333 38.9847 4.49445 38.7998 5.14817 38.5636C5.29258 38.5145 5.49041 38.2228 5.45576 38.1087C5.25647 37.4546 4.99076 36.8221 4.75393 36.1983H4.7496ZM8.01901 32.402C8.98077 33.0822 9.84289 33.719 10.7382 34.3052C10.8826 34.4034 11.1844 34.3052 11.3982 34.2475C11.4444 34.2359 11.4848 33.9847 11.44 33.8807C10.9346 32.7053 10.4119 31.5385 9.82845 30.2216L8.01901 32.402ZM7.19299 37.0835L9.0703 35.5644L6.83486 33.976C6.31788 34.285 6.18935 34.6244 6.43485 35.1428C6.71067 35.703 6.89984 36.3008 7.19732 37.0835H7.19299ZM12.7989 8.88647C11.3029 8.51969 11.0155 8.70597 11.2393 9.84818C12.3195 10.0821 12.708 9.85828 12.7989 8.88647Z" fill="#6BDBD8"/>
<path d="M37.8537 15.63C38.3418 15.6603 38.5858 16.0531 38.7201 16.5946C39.2877 19.0046 39.8754 21.4103 40.4415 23.8146C40.9151 25.8001 41.3643 27.7928 41.8654 29.774C42.3424 31.6175 43.1545 33.3576 44.2611 34.9074C46.0691 37.4874 47.8752 40.0688 49.6793 42.6516C49.9595 43.0501 50.1486 43.4458 49.867 43.9108C49.4627 44.5793 48.615 44.536 48.0951 43.7996C46.8041 41.9729 45.5304 40.1347 44.2481 38.3023C42.9383 36.4323 41.5578 34.6085 40.6711 32.4743C40.5917 32.2851 40.1931 32.132 39.9418 32.1291C36.632 32.0959 34.0716 30.07 33.3366 26.8687C32.6925 24.0716 34.0803 21.0724 36.71 19.705C37.253 19.4162 37.3873 19.1548 37.1894 18.5902C37.0058 18.0175 36.8649 17.4321 36.7677 16.8386C36.6306 16.1513 37.0753 15.6141 37.8537 15.63ZM37.8465 21.406C35.8753 22.0933 34.7157 24.5481 35.2919 26.6622C35.8825 28.8282 37.9837 30.4079 39.8985 30.0325L37.8465 21.406Z" fill="#6BDBD8"/>
<path d="M25.9792 9.42951C25.9762 9.55876 25.9473 9.68611 25.8943 9.80404C25.8413 9.92198 25.7653 10.0281 25.6706 10.1162C25.576 10.2043 25.4647 10.2725 25.3432 10.3169C25.2218 10.3613 25.0927 10.381 24.9635 10.3747C24.8344 10.3684 24.7078 10.3364 24.5912 10.2805C24.4747 10.2245 24.3705 10.1458 24.2848 10.049C24.1991 9.95214 24.1337 9.83915 24.0923 9.71664C24.051 9.59413 24.0346 9.46459 24.0441 9.33565C24.0627 9.08358 24.1791 8.84875 24.3684 8.68126C24.5577 8.51377 24.805 8.42688 25.0574 8.43913C25.3099 8.45137 25.5476 8.56179 25.7198 8.74681C25.892 8.93183 25.9851 9.17682 25.9792 9.42951Z" fill="#6BDBD8"/>
<path d="M37.6992 12.505C37.6978 12.7592 37.5979 13.0028 37.4203 13.1846C37.2428 13.3665 37.0016 13.4723 36.7476 13.4797C36.4935 13.4732 36.2512 13.3712 36.0689 13.1941C35.8867 13.0169 35.7779 12.7776 35.7642 12.5238C35.7703 12.2693 35.8737 12.0267 36.0531 11.846C36.2325 11.6652 36.4743 11.5601 36.7288 11.552C36.9834 11.5512 37.2281 11.6508 37.4098 11.8292C37.5914 12.0076 37.6954 12.2505 37.6992 12.505Z" fill="#6BDBD8"/>
</g>
<defs>
<clipPath id="clip0_69_237">
<rect width="50" height="50" fill="white"/>
</clipPath>
</defs>
</svg>
