<svg width="50" height="49" viewBox="0 0 50 49" fill="none" xmlns="http://www.w3.org/2000/svg">
<g clip-path="url(#clip0_69_210)">
<path d="M46.1095 37.3331C44.3449 37.3062 42.5803 37.3331 40.8143 37.3232C40.5743 37.3232 40.3329 37.2808 40.0181 37.2526C40.1254 36.9477 40.1875 36.7515 40.2652 36.5595C41.0529 34.5972 41.8279 32.628 42.641 30.6756C43.0086 29.8018 43.0945 28.8351 42.8866 27.9102C42.017 23.8163 41.163 19.7225 40.2242 15.6427C40.045 14.8668 39.6625 14.1525 39.1161 13.5732C37.5138 11.9724 35.505 11.5334 33.3833 12.2533C31.2869 12.9591 29.9487 14.4259 29.5492 16.7198C29.36 17.8082 29.0297 18.9404 28.4777 19.8876C26.915 22.5698 24.4008 23.7627 21.3699 23.8925C20.3507 23.9377 19.5348 24.2186 18.9701 25.0939C18.8415 25.2571 18.6692 25.3805 18.4732 25.4496C16.3698 26.3065 16.3684 26.2966 14.4259 25.1786C14.384 25.1573 14.3439 25.1328 14.3059 25.1052C13.9304 24.8045 13.6142 24.8864 13.2401 25.1673C11.7169 26.3136 10.1641 27.4175 8.63948 28.5623C8.34315 28.7892 8.09382 29.0717 7.90541 29.3938C7.01323 30.9156 6.07023 32.4162 5.3037 33.9987C4.46516 35.7252 3.40359 37.0606 1.41172 37.4954C0.674824 37.6563 0.423546 38.3001 0.649414 38.845C0.875281 39.3899 1.44136 39.5691 2.15708 39.308C2.79798 39.0737 3.46005 38.8704 4.05437 38.5485C5.01995 38.0234 5.6312 38.7518 6.2594 39.1767C6.48809 39.332 6.45138 40.0138 6.40056 40.4359C6.15352 42.2301 5.85425 44.0159 5.57474 45.8003C5.48015 46.4101 5.52392 46.979 6.07447 47.387C6.92147 48.0124 8.02963 47.4872 8.22021 46.3649C8.38396 45.3951 8.53219 44.4239 8.68747 43.4527L8.98251 43.4668C8.98251 44.2799 8.96557 45.0944 8.98251 45.9076C9.01075 46.9155 9.56553 47.5338 10.3787 47.5112C11.1918 47.4886 11.6972 46.8633 11.6633 45.8341C11.604 44.071 11.5221 42.305 11.4685 40.5432C11.452 40.2423 11.5092 39.9418 11.635 39.668C13.4655 36.1416 15.3096 32.6223 17.1674 29.1101C17.2507 28.9506 17.3678 28.736 17.5132 28.6866C18.4111 28.4226 19.244 27.6292 20.2801 28.3125C20.4691 28.4111 20.6814 28.4565 20.8942 28.4438C23.0781 28.4438 25.2492 28.2391 27.2213 27.2622C28.5906 26.5832 29.8315 25.6444 31.1443 24.8129C31.1161 24.7565 31.1923 24.8525 31.2163 24.9541C31.4987 26.1936 31.781 27.4316 32.0069 28.6795C32.0351 28.8376 31.7782 29.1694 31.5947 29.2258C29.7948 29.7707 27.9794 30.262 26.1753 30.7942C24.3711 31.3264 23.51 32.6717 23.8248 34.497C24.3542 37.5787 24.9316 40.6519 25.4906 43.7293C25.5668 44.1458 25.6318 44.5636 25.7292 44.9758C26.1315 46.6868 27.6829 47.7639 29.2866 47.4562C31.0568 47.1329 32.141 45.556 31.8191 43.7618C31.4224 41.5398 30.9905 39.3235 30.6065 37.1001C30.5458 36.7444 30.5543 36.088 30.7025 36.0343C31.7669 35.6405 32.8736 35.3666 34.1427 35.0052C33.9903 35.4146 33.914 35.6278 33.8322 35.8395C33.3494 37.0634 32.8073 38.2676 32.3937 39.5099C31.7514 41.4481 33.1263 43.4625 35.1747 43.5007C38.9636 43.5628 42.7539 43.5501 46.5429 43.5007C48.1621 43.4795 49.4354 42.041 49.4354 40.426C49.434 38.6643 48.0604 37.3627 46.1095 37.3331Z" stroke="#6BDBD8" stroke-width="1.5" stroke-miterlimit="10"/>
<path d="M31.4026 12.297C32.5628 12.3001 33.6979 11.9591 34.6643 11.3172C35.6307 10.6753 36.3851 9.76122 36.8321 8.69061C37.2791 7.62 37.3986 6.44089 37.1756 5.30234C36.9526 4.1638 36.397 3.11694 35.5791 2.2941C34.7612 1.47127 33.7177 0.909404 32.5805 0.679539C31.4434 0.449675 30.2636 0.562132 29.1903 1.00269C28.117 1.44326 27.1984 2.19214 26.5507 3.15468C25.903 4.11721 25.5552 5.25018 25.5513 6.41036C25.5509 7.96562 26.1661 9.45781 27.2625 10.5608C28.359 11.6639 29.8474 12.2881 31.4026 12.297V12.297Z" stroke="#6BDBD8" stroke-width="1.5" stroke-miterlimit="10"/>
<path d="M4.90981 23.4859C5.8528 24.8016 6.71957 26.1723 7.62304 27.5275L8.23571 28.4423C9.85489 27.265 11.3993 26.1159 12.9874 25.0317C13.5083 24.6731 13.6777 24.3414 13.3516 23.7725C12.9959 23.1499 13.0693 22.6432 13.6636 22.1194C14.6009 21.2837 15.0753 20.184 14.8847 18.8923C14.6885 17.5174 13.4984 16.916 12.3041 17.5964C11.9724 17.7746 11.6649 17.9948 11.3894 18.2514C10.4901 19.1267 9.47656 19.7295 8.20182 19.9017C7.73984 19.9891 7.30128 20.1724 6.91438 20.4395C6.51347 20.6936 6.20854 20.6612 5.8161 20.4395C5.3938 20.1869 4.93536 20.0003 4.45666 19.8862C3.87223 19.7704 3.32732 19.9596 3.01675 20.5299C2.70619 21.1002 3.0464 21.5181 3.41626 21.9034C3.91317 22.4314 4.49054 22.9015 4.90981 23.4859Z" stroke="#6BDBD8" stroke-width="1.5" stroke-miterlimit="10"/>
</g>
<defs>
<clipPath id="clip0_69_210">
<rect width="50" height="48.2241" fill="white"/>
</clipPath>
</defs>
</svg>
