<svg width="74" height="100" viewBox="0 0 74 100" fill="none" xmlns="http://www.w3.org/2000/svg">
<g clip-path="url(#clip0_74_1125)">
<path d="M71.5225 27.0892C69.9262 29.8156 71.0027 32.6056 72.9376 35.4024C73.6083 36.385 73.2294 37.7767 72.3843 38.8431C70.7679 40.8786 70.3521 43.0751 71.3179 45.5801C71.9886 47.3374 71.3682 48.7894 69.7552 49.9128C67.7766 51.2877 66.7606 53.1187 66.8109 55.5768C66.8578 57.7901 65.9691 58.9302 63.7927 59.5808C61.6164 60.2314 60.2448 61.5392 59.621 63.719C58.9973 65.8987 57.7163 66.9349 55.4695 66.8645C52.9812 66.7874 51.2173 67.7834 49.8692 69.829C48.8263 71.4152 47.1864 71.9484 45.3018 71.2576C42.9242 70.389 40.8786 70.6841 38.9068 72.3072C37.4748 73.4876 35.6304 73.4306 34.1214 72.2401C32.2032 70.721 30.2314 70.3219 27.8974 71.2542C25.9088 72.049 24.4467 71.4353 23.169 69.5775C22.6289 68.7305 21.8794 68.0373 20.9928 67.5649C20.1063 67.0926 19.1129 66.8571 18.1086 66.8813C15.3823 66.8813 14.4198 66.2106 13.5379 63.6184C12.8102 61.5057 11.4587 60.1576 9.28234 59.5473C7.24344 58.9738 6.34807 57.7398 6.37155 55.6271C6.40173 53.2093 5.53989 51.3414 3.4641 49.9765C1.67671 48.8162 1.24076 47.3642 1.9584 45.3119C2.77664 42.9645 2.33063 40.9524 0.878586 39.0275C-0.355485 37.3944 -0.278356 35.6036 1.03285 33.9705C1.67096 33.231 2.10326 32.3366 2.28633 31.3771C2.46939 30.4176 2.39677 29.4269 2.07577 28.5044C1.22064 25.7579 1.59287 24.6479 3.8028 23.0181C5.49965 21.7706 6.29106 20.0671 6.36149 17.9879C6.45538 15.104 6.97852 14.44 9.63781 13.5144C11.5828 12.8437 12.9577 11.5862 13.5781 9.51375C14.3561 6.93159 15.2548 6.28437 17.9376 6.33803C20.1408 6.38162 21.8008 5.48625 23.065 3.73239C24.5372 1.69014 25.778 1.26425 28.0952 2.02884C30.2616 2.74312 32.22 2.51174 34.0577 1.04963C35.8082 -0.342054 37.2636 -0.365528 39.0878 1.01945C40.9926 2.47149 42.9577 2.7666 45.2146 2.00536C47.4715 1.24413 48.7022 1.73038 50.0939 3.70892C50.6487 4.55089 51.4117 5.23512 52.309 5.6952C53.2062 6.15527 54.2071 6.37556 55.2146 6.33467C57.8001 6.33467 58.8162 7.02884 59.6177 9.54058C60.3353 11.7874 61.8075 13.0785 64.051 13.6754C65.882 14.1616 66.8779 15.4091 66.8276 17.3206C66.7572 19.8692 67.6157 21.8746 69.8156 23.2763C70.9557 24.0141 71.5493 25.1207 71.5225 27.0892Z" fill="#39B54A"/>
<path d="M35.228 75.7512C34.8926 76.7572 34.5271 77.7968 34.1448 78.8431C31.7102 85.4896 29.2711 92.1328 26.8276 98.7726C26.6632 99.2186 26.7035 99.9665 26.1569 100C25.4862 100.037 25.4493 99.2388 25.2313 98.7726C23.2863 94.6345 21.3413 90.493 19.4701 86.3213C19.0174 85.3152 18.6317 85.1844 17.6156 85.674C13.3031 87.7632 8.93353 89.7351 4.59081 91.7639C4.29235 91.9048 4.01401 92.2032 3.69543 91.9618C3.37686 91.7203 3.63842 91.3548 3.74238 91.063C6.56152 83.3121 9.37842 75.56 12.1931 67.8069C12.5284 66.888 12.8973 66.8276 13.5982 67.4715C14.8725 68.6251 16.4251 68.9839 18.1052 68.89C19.5103 68.8129 20.5432 69.4098 21.3883 70.5164C23.6686 73.5044 25.4862 74.1113 29.0677 72.9645C29.6189 72.7597 30.2126 72.696 30.7948 72.7792C31.377 72.8624 31.9291 73.0897 32.401 73.4407C33.1253 73.9604 33.7893 74.5574 34.678 74.8122C34.778 74.8337 34.8725 74.8758 34.9555 74.9358C35.0384 74.9958 35.1079 75.0723 35.1596 75.1607C35.2114 75.249 35.2441 75.3471 35.2559 75.4487C35.2677 75.5504 35.2582 75.6534 35.228 75.7512Z" fill="#39B54A"/>
<path d="M69.8055 92.3038C65.8048 90.4426 62.23 88.776 58.6519 87.116C57.5922 86.6264 56.4956 86.2039 55.4594 85.664C54.5238 85.1744 54.118 85.4829 53.7089 86.3783C51.7974 90.5868 49.8289 94.7619 47.8638 98.947C47.6827 99.336 47.6391 99.9765 47.1562 100C46.5057 100.03 46.5426 99.2958 46.3883 98.8766C43.6183 91.3581 40.8618 83.8352 38.1187 76.3078C37.8437 75.56 37.8571 75.0704 38.7257 74.7418C39.3334 74.4767 39.8984 74.123 40.4024 73.6921C40.9364 73.2418 41.581 72.9422 42.2696 72.8243C42.9582 72.7063 43.6657 72.7744 44.3192 73.0215C47.6224 74.0979 49.7686 73.397 51.7203 70.6372C52.5553 69.4601 53.6183 68.776 55.0972 68.89C55.9052 68.9674 56.7204 68.8811 57.4943 68.6362C58.2681 68.3914 58.9846 67.9929 59.6009 67.4648C60.2917 66.8846 60.6774 66.8511 61.0261 67.8001C63.7726 75.446 66.5593 83.0818 69.3259 90.7176C69.4701 91.0865 69.5573 91.452 69.8055 92.3038Z" fill="#39B54A"/>
<path d="M64.8425 36.3347C64.876 52.0691 52.324 64.8558 36.8277 64.8826C33.0827 64.912 29.3692 64.1969 25.903 62.7788C22.4367 61.3608 19.2868 59.268 16.6363 56.6222C13.9857 53.9763 11.8874 50.8301 10.4632 47.3664C9.03902 43.9026 8.31735 40.1904 8.34012 36.4453C8.34012 21.0195 21.0262 8.34675 36.4588 8.33669C52.1094 8.32663 64.8123 20.8551 64.8425 36.3347Z" fill="white"/>
<path d="M21.6765 52.3139C19.3694 52.3139 18.2896 51.3078 18.2393 49.1717C18.2393 48.3937 18.3767 47.9041 19.3191 47.8806C20.1474 47.8806 20.5833 48.0718 20.5498 48.9805C20.5196 49.7954 20.8415 50.5097 21.7604 50.4259C22.6792 50.342 22.7228 49.497 22.7664 48.7492C22.9173 46.8746 21.5324 45.9323 20.3352 44.9966C18.7356 43.7458 18.2829 42.1898 18.5008 40.3018C18.7188 38.4138 19.9294 37.4178 21.9381 37.4749C23.7087 37.5252 24.7315 38.605 24.8053 40.493C24.8288 41.1636 24.755 41.7237 23.8831 41.7572C23.1353 41.7874 22.5417 41.7036 22.5149 40.7512C22.5149 40.1341 22.5149 39.44 21.5827 39.5238C20.6504 39.6076 20.855 40.332 20.7979 40.9155C20.637 42.5721 21.9817 43.2394 22.9777 44.0409C24.7986 45.503 25.3251 47.3441 24.9629 49.5439C24.6477 51.4755 23.6551 52.2938 21.6765 52.3139Z" fill="#39B54A"/>
<path d="M26.2979 46.7404C26.3381 45.3655 26.1168 43.9805 26.7103 42.6291C27.2167 41.4822 27.9779 40.8887 29.2187 40.7881C30.5601 40.6807 31.7103 41.0362 32.3676 42.2233C33.1221 43.5949 32.884 45.1475 32.817 46.6432C32.7969 47.1663 32.3475 47.1932 31.9484 47.1932C31.3918 47.1932 30.8351 47.173 30.2717 47.1697C28.6721 47.1697 27.9746 48.2696 28.6755 49.7284C28.7379 49.9159 28.8555 50.0802 29.0129 50.1999C29.1702 50.3195 29.36 50.389 29.5574 50.3991C29.7557 50.4009 29.9487 50.3356 30.1052 50.2139C30.2617 50.0921 30.3723 49.921 30.4193 49.7284C30.7177 48.4977 31.7305 48.6284 32.3911 48.9537C33.2932 49.393 32.6325 50.2146 32.3911 50.825C31.6567 52.5553 30.104 52.3675 28.6687 52.2502C26.992 52.1127 26.5661 50.7579 26.3381 49.4199C26.1771 48.5446 26.2979 47.619 26.2979 46.7404Z" fill="#39B54A"/>
<path d="M48.729 44.621C48.7524 47.1864 48.7524 47.1864 46.3815 47.1898C44.5807 47.1898 44.2119 47.6291 44.5774 49.3025C44.6813 49.7753 44.8725 50.1475 45.3755 50.2549C45.4828 50.2886 45.5959 50.2995 45.7076 50.2869C45.8193 50.2742 45.9272 50.2383 46.0242 50.1814C46.1212 50.1246 46.2052 50.048 46.2708 49.9567C46.3364 49.8654 46.3821 49.7613 46.405 49.6512C46.7236 48.5748 47.6022 48.6083 48.2763 48.9369C49.1079 49.3394 48.5412 50.1241 48.3366 50.6975C47.7699 52.287 46.4352 52.3206 45.0368 52.287C43.6384 52.2535 42.7296 51.6164 42.515 50.3152C42.0757 47.9038 42.0757 45.4329 42.515 43.0214C42.8504 41.3682 43.9369 40.7478 45.7343 40.7746C47.3876 40.8015 48.3198 41.6566 48.6183 43.226C48.6909 43.6875 48.7279 44.1539 48.729 44.621Z" fill="#39B54A"/>
<path d="M22.3743 28.1221C22.3743 26.11 22.3978 24.0979 22.3743 22.1093C22.3743 21.1402 22.6761 20.6271 23.7157 20.7411C24.1013 20.7814 24.4971 20.7411 24.8861 20.7411C28.4642 20.7914 30.0873 23.4742 28.4307 26.7539C28.2826 26.9679 28.209 27.2246 28.2211 27.4845C28.2332 27.7444 28.3304 27.9932 28.4977 28.1925C29.6815 30.114 29.4434 32.1496 28.595 34.108C28.1691 35.0905 27.0926 35.171 26.1671 35.3152C22.5889 35.8652 22.3676 35.6707 22.3643 32.1294V28.1053L22.3743 28.1221Z" fill="#39B54A"/>
<path d="M30.4157 29.725C30.4157 28.833 30.3419 27.9343 30.4157 27.0422C30.6169 25.01 31.8443 23.9437 33.8295 23.9805C35.6605 24.0174 36.794 25.1744 36.9449 27.173C36.9683 27.448 36.9449 27.7297 36.9449 28.008C36.9449 30.332 36.9449 30.332 34.5706 30.332C32.639 30.332 32.354 30.6439 32.6625 32.4011C32.743 32.8538 32.8134 33.2998 33.3567 33.4071C33.8999 33.5144 34.3929 33.4071 34.5572 32.8068C34.8657 31.6566 35.808 31.831 36.4117 32.1596C37.126 32.552 36.7168 33.3635 36.4486 33.9571C35.7779 35.4494 34.4365 35.5567 33.0582 35.4594C31.804 35.3722 31.0294 34.6982 30.627 33.5245C30.2178 32.287 30.4425 30.9993 30.4157 29.725Z" fill="#39B54A"/>
<path d="M41.0529 35.4963C39.2957 35.4963 38.1489 34.5808 38.0348 33.0382C38.008 32.5922 37.7699 31.9048 38.5211 31.841C39.0979 31.7941 39.9027 31.4051 40.1609 32.4246C40.3387 33.1321 40.6941 33.8498 41.5023 33.283C42.173 32.8068 42.126 31.9752 41.5023 31.3917C40.8316 30.7411 40.0301 30.2113 39.3226 29.5909C37.9577 28.3903 37.6458 26.7438 38.4875 25.2314C39.3293 23.719 40.835 23.9135 42.1763 24.0845C43.34 24.2287 44.2186 25.7243 44.0174 26.8779C43.9403 27.3239 43.7323 27.5989 43.283 27.6425C42.6324 27.7029 42.0288 27.619 41.8276 26.8578C41.7136 26.4185 41.6465 25.9591 41.0731 25.9088C40.9321 25.8949 40.791 25.9334 40.6766 26.0169C40.5621 26.1004 40.4825 26.223 40.4527 26.3615C40.3611 26.5981 40.3468 26.8576 40.4119 27.1028C40.4769 27.348 40.618 27.5663 40.8148 27.7264C41.2912 28.1338 41.7967 28.5059 42.3272 28.8397C43.7793 29.7116 44.3393 30.9725 44.1951 32.6358C44.0341 34.5573 43.0516 35.4896 41.0529 35.4963Z" fill="#39B54A"/>
<path d="M46.0395 30.3689C46.0395 29.5339 46.0563 28.6922 46.0395 27.8605C46.0227 27.1194 46.2407 26.3481 45.1777 25.949C44.507 25.6975 44.6981 24.4668 44.9597 24.3863C46.3379 23.9638 45.9657 22.894 46.0764 21.9752C46.1636 21.224 46.7638 21.4051 47.2367 21.3716C47.8168 21.3347 48.1991 21.5191 48.2159 22.1932C48.236 23.0852 47.9443 24.0476 49.45 24.2555C49.9463 24.326 50.0133 25.6975 49.1515 25.9591C48.1455 26.2676 48.2159 26.9115 48.2226 27.6358C48.2226 29.1382 48.2494 30.6539 48.3031 32.1462C48.3031 32.5755 48.2259 33.1523 48.6384 33.3803C49.3292 33.7458 49.7182 34.2019 49.4801 34.9665C49.242 35.7311 48.5814 35.4594 48.0549 35.4963C47.6646 35.5543 47.2663 35.4728 46.9302 35.2661C46.594 35.0593 46.3416 34.7407 46.2172 34.3662C46.1008 33.9954 46.0464 33.6079 46.0563 33.2193C46.0361 32.2736 46.0563 31.3246 46.0563 30.3789L46.0395 30.3689Z" fill="#39B54A"/>
<path d="M34.289 44.678C34.289 42.505 34.3124 40.3186 34.289 38.1589C34.289 37.2535 34.5807 36.8611 35.5432 36.8611C36.5056 36.8611 36.6397 37.3373 36.6364 38.112C36.6364 42.401 36.6129 46.6901 36.6364 50.9825C36.6364 51.8947 36.3681 52.2602 35.3956 52.2468C34.4231 52.2334 34.2688 51.8444 34.2823 51.0295C34.3124 48.9135 34.289 46.7974 34.289 44.678Z" fill="#39B54A"/>
<path d="M40.6808 44.6009C40.6808 46.717 40.6808 48.833 40.6808 50.9457C40.6808 51.6968 40.5903 52.2267 39.6211 52.2267C38.7157 52.2267 38.4876 51.8276 38.491 51.0127C38.5111 46.727 38.5111 42.4413 38.491 38.1556C38.491 37.4011 38.5916 36.8846 39.554 36.8612C40.6506 36.8343 40.6741 37.4681 40.6674 38.2562C40.6674 40.3857 40.6808 42.4983 40.6808 44.6009Z" fill="#39B54A"/>
<path d="M54.9162 41.7673C55.057 42.8538 54.8491 43.444 53.9604 43.6989C52.9544 43.9873 52.6191 44.7586 52.5989 45.7545C52.5654 47.4816 52.4816 49.2086 52.4413 50.9356C52.4413 51.6465 52.4413 52.2535 51.4152 52.2435C50.5265 52.2435 50.2549 51.8846 50.2616 51.0463C50.2918 48.0282 50.2616 45.0101 50.2784 42.0087C50.2784 41.5694 50.218 41.0463 50.7981 40.9189C51.2743 40.8115 51.9115 40.6271 52.1831 41.1301C52.5822 41.8712 52.884 41.8008 53.3803 41.271C53.5145 41.0884 53.7022 40.9522 53.9173 40.8813C54.1325 40.8104 54.3644 40.8083 54.5808 40.8753C55.1509 41.0832 54.8759 41.6398 54.9162 41.7673Z" fill="#39B54A"/>
<path d="M25.1508 30.8887C25.1508 30.5533 25.124 30.218 25.1508 29.8826C25.2045 29.3293 24.9027 28.5412 25.8819 28.5111C26.2199 28.4741 26.5596 28.5646 26.8344 28.765C27.1092 28.9653 27.2993 29.2611 27.3675 29.5942C27.4983 30.4684 27.5084 31.3564 27.3977 32.2334C27.3105 33.0516 26.7773 33.5043 25.8953 33.4272C24.9396 33.3434 25.181 32.6157 25.1508 32.0456C25.1508 31.6667 25.1508 31.2777 25.1508 30.8887Z" fill="white"/>
<path d="M25.0972 24.6881C25.3554 23.9705 24.621 22.7733 25.9925 22.7297C27.3641 22.6861 27.2568 23.8263 27.2501 24.7619C27.2501 25.6338 27.3675 26.7002 26.0529 26.67C24.5036 26.6331 25.4292 25.3387 25.0972 24.6881Z" fill="white"/>
<path d="M30.6205 44.3394C30.701 44.9933 30.3924 45.389 29.6144 45.4125C28.7526 45.4393 28.6084 44.9162 28.6084 44.222C28.6084 43.5278 28.709 42.8069 29.6144 42.8069C30.5199 42.8069 30.6003 43.5278 30.6205 44.3394Z" fill="white"/>
<path d="M35.3018 27.8001C35.3018 28.0248 35.1542 28.4977 34.2957 28.5077C33.5412 28.5077 33.1622 28.2663 33.1891 27.4681C33.2159 26.67 33.2964 25.9121 34.2387 25.9021C35.0737 25.892 35.2414 26.6197 35.3018 27.8001Z" fill="white"/>
<path d="M46.6466 44.1516C46.6902 44.9161 46.5124 45.4929 45.5802 45.4527C44.7955 45.4259 44.5138 44.9899 44.554 44.2622C44.5943 43.5345 44.487 42.676 45.5098 42.6391C46.4755 42.6056 46.5929 43.4004 46.6466 44.1516Z" fill="white"/>
<path d="M30.3421 13.4574L31.0832 14.9598L32.7431 15.1979L31.5426 16.3682L31.8243 18.0181L30.3421 17.2401L28.8598 18.0181L29.1449 16.3682L27.9443 15.1979L29.6009 14.9598L30.3421 13.4574Z" fill="#39B54A"/>
<path d="M36.0864 13.558L36.8241 15.0604L38.4841 15.3018L37.2836 16.4722L37.5686 18.1221L36.0864 17.3407L34.6042 18.1221L34.8858 16.4722L33.6853 15.3018L35.3419 15.0604L36.0864 13.558Z" fill="#39B54A"/>
<path d="M41.8276 13.662L42.5687 15.1643L44.2253 15.4058L43.0248 16.5728L43.3098 18.2227L41.8276 17.4447L40.3454 18.2227L40.627 16.5728L39.4265 15.4058L41.0865 15.1643L41.8276 13.662Z" fill="#39B54A"/>
<path d="M30.4461 55.493L31.1872 56.9953L32.8438 57.2334L31.6466 58.4038L31.9283 60.0537L30.4461 59.2757L28.9638 60.0537L29.2455 58.4038L28.0483 57.2334L29.7049 56.9953L30.4461 55.493Z" fill="#39B54A"/>
<path d="M36.187 55.5935L36.9281 57.0959L38.5847 57.3373L37.3876 58.5077L37.6693 60.1576L36.187 59.3762L34.7048 60.1576L34.9865 58.5077L33.7893 57.3373L35.4459 57.0959L36.187 55.5935Z" fill="#39B54A"/>
<path d="M41.9282 55.6975L42.6694 57.1999L44.326 57.438L43.1288 58.6083L43.4105 60.2582L41.9282 59.4802L40.446 60.2582L40.7311 58.6083L39.5305 57.438L41.1871 57.1999L41.9282 55.6975Z" fill="#39B54A"/>
</g>
<defs>
<clipPath id="clip0_74_1125">
<rect width="73.2864" height="100" fill="white"/>
</clipPath>
</defs>
</svg>
