<svg width="30" height="30" viewBox="0 0 30 30" fill="none" xmlns="http://www.w3.org/2000/svg">
<path fill-rule="evenodd" clip-rule="evenodd" d="M6.42854 7.71429H27.8571L25.1382 17.2286C24.9334 17.9448 24.5009 18.5748 23.9061 19.0233C23.3113 19.4718 22.5866 19.7143 21.8417 19.7143H10.356C9.51162 19.7148 8.69678 19.4037 8.0676 18.8406C7.43841 18.2775 7.03913 17.5021 6.94625 16.6629L5.57139 4.28572H2.14282" fill="#FECB2F"/>
<path d="M6.42854 7.71429H27.8571L25.1382 17.2286C24.9334 17.9448 24.5009 18.5748 23.9061 19.0233C23.3113 19.4718 22.5866 19.7143 21.8417 19.7143H10.356C9.51162 19.7148 8.69678 19.4037 8.0676 18.8406C7.43841 18.2775 7.03913 17.5021 6.94625 16.6629L5.57139 4.28572H2.14282" stroke="#FECB2F" stroke-linecap="round" stroke-linejoin="round"/>
<path d="M9.85711 25.7143C10.8039 25.7143 11.5714 24.9468 11.5714 24C11.5714 23.0532 10.8039 22.2857 9.85711 22.2857C8.91033 22.2857 8.14282 23.0532 8.14282 24C8.14282 24.9468 8.91033 25.7143 9.85711 25.7143Z" fill="#FECB2F"/>
<path d="M23.5715 25.7143C24.5182 25.7143 25.2857 24.9468 25.2857 24C25.2857 23.0532 24.5182 22.2857 23.5715 22.2857C22.6247 22.2857 21.8572 23.0532 21.8572 24C21.8572 24.9468 22.6247 25.7143 23.5715 25.7143Z" fill="#FECB2F"/>
</svg>
