<svg width="50" height="50" viewBox="0 0 50 50" fill="none" xmlns="http://www.w3.org/2000/svg">
<path d="M29.9077 0C36.807 0 42.4323 5.55267 42.4323 12.3649C42.4292 15.6395 41.1096 18.7796 38.7623 21.0978C36.415 23.416 33.2312 24.7235 29.9077 24.7342C22.9806 24.7472 17.3172 19.1555 17.3392 12.3259C17.3551 9.05171 18.6862 5.91691 21.0415 3.60708C23.3968 1.29724 26.5846 0.000344447 29.9077 0V0ZM25.3277 15.9256C25.3309 16.6767 25.5625 17.4096 25.9926 18.0296C26.4228 18.6497 27.0318 19.1284 27.7409 19.404C28.1807 19.5773 28.3786 19.7767 28.4592 20.2461C28.5174 20.5828 28.697 20.8875 28.9651 21.1041C29.2331 21.3207 29.5715 21.4346 29.918 21.4249C30.2641 21.4238 30.598 21.2981 30.8566 21.0714C31.1153 20.8448 31.281 20.5328 31.3225 20.1941C31.3738 19.7608 31.557 19.599 31.9485 19.4459C33.9394 18.6644 34.9143 16.6493 34.2942 14.679C34.0156 13.7936 33.4512 13.1204 32.7035 12.5773C31.4251 11.6528 30.1555 10.7153 28.8741 9.79084C28.4431 9.48027 28.169 9.11336 28.3493 8.56734C28.5296 8.02132 28.9665 7.94476 29.4679 7.94476C29.7611 7.94476 30.0543 7.95198 30.3475 7.94476C31.0498 7.92743 31.4222 8.25533 31.5336 8.9458C31.6802 9.88906 32.3648 10.4351 33.1726 10.3253C34.0523 10.2054 34.6094 9.42393 34.4598 8.46045C34.2238 6.93939 33.4072 5.84157 31.9323 5.27388C31.5864 5.14098 31.3767 5.00376 31.3342 4.58196C31.3043 4.24316 31.1484 3.92719 30.8965 3.69471C30.6446 3.46222 30.3144 3.32962 29.9693 3.32236C29.2245 3.28913 28.5721 3.73693 28.4534 4.5054C28.3771 4.99798 28.1396 5.16554 27.7204 5.3331C26.9908 5.62117 26.3687 6.12321 25.9384 6.77121C25.5081 7.41922 25.2903 8.18189 25.3145 8.95591C25.3245 9.56035 25.4793 10.1539 25.7665 10.6881C26.0536 11.2223 26.4649 11.6821 26.9668 12.0298C28.2965 13.0077 29.6409 13.9683 30.9618 14.9578C31.667 15.4851 31.6846 16.2261 31.0424 16.6233C30.0441 17.2416 28.5223 16.6782 28.2335 15.5847C28.0209 14.783 27.4213 14.354 26.6208 14.4291C25.8599 14.5086 25.3395 15.108 25.3277 15.9256Z" fill="#6BDBD8"/>
<path d="M25.7428 42.3731C23.7885 42.3731 21.8358 42.3601 19.8786 42.3817C19.4138 42.3817 19.1235 42.2705 18.8802 41.8487C17.0799 38.7363 15.2619 35.634 13.4264 32.5418C13.1772 32.1214 13.2124 31.8109 13.4514 31.4223C16.3542 26.7205 23.6082 24.4324 28.7732 29.1111C29.0437 29.3345 29.3821 29.4626 29.7349 29.4751C31.3212 29.5112 32.9089 29.491 34.4967 29.4925C36.0521 29.4925 36.942 30.2147 36.9332 31.4599C36.9245 32.705 36.0653 33.3825 34.5406 33.3839C32.2702 33.3839 29.9988 33.3839 27.7264 33.3839C26.5946 33.3839 25.9275 33.9184 25.9143 34.8198C25.9011 35.7211 26.577 36.2975 27.6853 36.2989C29.9328 36.2989 32.1788 36.2989 34.4292 36.2989C35.6585 36.3003 36.8544 35.9057 37.8349 35.1751C40.7553 33.0796 43.6849 30.9967 46.6239 28.9262C47.5387 28.282 48.5664 28.3369 49.3185 29.0028C50.0149 29.6196 50.2246 30.7116 49.7378 31.5061C49.5292 31.8301 49.2589 32.1111 48.9417 32.3338C45.5512 34.7721 42.1539 37.2027 38.7497 39.6256C36.0947 41.5266 33.1581 42.5146 29.8478 42.3789C28.4799 42.324 27.1106 42.3731 25.7428 42.3731Z" fill="#6BDBD8"/>
<path d="M8.4725 30.947C8.84341 31.2359 9.35214 31.4642 9.58377 31.8513C11.9705 35.8477 14.3294 39.8644 16.6604 43.9013C17.1193 44.69 16.9097 45.4007 16.0975 45.8716C13.8251 47.188 11.5429 48.4881 9.25098 49.7718C8.42265 50.2355 7.72627 49.9942 7.18237 49.0755C5.83066 46.7874 4.49654 44.4907 3.15363 42.2011C2.23881 40.6391 1.3235 39.0776 0.407699 37.5166C-0.282815 36.3336 -0.114218 35.6879 1.0557 35.022C3.14826 33.8307 5.23984 32.6419 7.33044 31.4555C7.64857 31.2807 7.9931 31.1594 8.4725 30.947Z" fill="#6BDBD8"/>
</svg>
