<svg width="60" height="60" viewBox="0 0 60 60" fill="none" xmlns="http://www.w3.org/2000/svg">
<circle opacity="0.2" cx="30" cy="30" r="30" fill="#FECB2F"/>
<g clip-path="url(#clip0_69_272)">
<path d="M49.9848 48.2457C49.7822 46.5942 49.1345 45.028 48.1102 43.7129L47.5704 43.0084C48.6453 42.0279 49.3719 40.8742 49.4659 39.4479C49.5462 38.1994 49.5517 36.9472 49.4822 35.6981C49.4381 34.9035 49.1862 34.1217 49.0597 33.3306C49.0168 33.097 49.0438 32.8561 49.1375 32.6377C49.7492 31.4401 49.885 30.1824 49.6749 28.8763C49.5762 28.2607 49.2709 27.9847 48.6662 27.9766C47.5634 27.9616 46.4607 27.9686 45.358 27.9766C44.795 27.9766 44.4572 28.2688 44.3365 28.8116C44.304 28.9571 44.2808 29.1049 44.2506 29.262C43.0794 29.262 41.943 29.2759 40.8078 29.2435C40.6685 29.2435 40.448 29.0045 40.4155 28.8463C40.2994 28.2873 39.9802 27.9893 39.423 27.9813C38.3017 27.9651 37.1796 27.9651 36.0568 27.9813C35.4683 27.9905 35.1108 28.3127 35.0562 28.8982C34.9401 30.1801 35.0167 31.432 35.6575 32.6007C35.7526 32.819 35.7754 33.0617 35.7225 33.2936C35.6064 33.9519 35.3464 34.5963 35.3081 35.2569C35.2326 36.5619 35.2245 37.8739 35.2698 39.1835C35.3232 40.7218 36.044 41.9748 37.2025 43.0223L36.4932 43.9184C34.9924 39.6258 32.0893 36.9985 27.6818 35.9187C27.7329 35.824 27.8177 35.8124 27.8827 35.7708C29.856 34.4878 31.1084 32.7139 31.6366 30.425C31.6699 30.3327 31.7221 30.2484 31.7898 30.1772C31.8575 30.1061 31.9393 30.0496 32.0301 30.0115C33.5901 29.396 34.5188 28.2145 34.5617 26.7479C34.6093 25.131 33.791 23.9323 32.1845 23.2036C32.0243 23.1308 31.82 22.9299 31.8153 22.782C31.784 21.7831 31.7921 20.7818 31.8153 19.7794C31.8153 19.6223 31.9395 19.4641 32.0127 19.3105C32.4677 18.3566 32.9552 17.4165 33.3696 16.4464C33.6517 15.7835 33.5298 15.049 32.9506 14.6656C32.2646 14.2095 32.4201 13.7925 32.7126 13.2636C32.7579 13.1793 32.7915 13.0881 32.8287 13.0003C33.4845 11.4424 32.2634 9.96994 30.7881 9.99996C27.134 10.0762 23.4752 10.0231 19.8211 10.0288C19.4543 10.0205 19.0875 10.0495 18.7265 10.1154C17.4277 10.3737 16.2385 11.019 15.3169 11.9656C14.3953 12.9122 13.785 14.1153 13.5669 15.4151C13.4732 15.8599 13.4342 16.3145 13.4509 16.7686C13.4358 17.7087 13.4021 20.485 13.4334 20.9689C13.4857 21.7658 13.9593 22.2289 14.7544 22.3247C14.8623 22.3386 14.9691 22.357 15.0666 22.3721C15.1723 22.8051 15.1235 23.065 14.6604 23.2486C13.9664 23.5064 13.3701 23.9726 12.9543 24.5826C12.5385 25.1926 12.3237 25.9161 12.3396 26.653C12.3556 27.3899 12.6015 28.1036 13.0433 28.6952C13.4851 29.2868 14.1009 29.7271 14.8055 29.9549C15.1398 30.0704 15.2384 30.2356 15.3139 30.5462C15.7879 32.6147 17.0343 34.4266 18.8008 35.6149C18.9355 35.7073 19.062 35.8136 19.257 35.9614C19.0457 36.0272 18.9239 36.0769 18.7997 36.1034C13.7143 37.3103 10.246 41.5001 9.99989 46.6867C9.91284 48.5344 11.1537 50.097 13.4822 49.9722H13.8095C19.3812 49.9722 27.9012 49.9722 33.4729 49.9584C33.986 49.9584 34.4979 49.8163 35.0121 49.7574C35.1751 49.7463 35.3389 49.7584 35.4984 49.7932C35.8165 49.8498 36.1322 49.9746 36.4491 49.9769C39.0411 49.9919 41.6331 49.985 44.2262 49.9838C44.3713 49.9838 44.5547 50.0254 44.6615 49.9676C45.4648 49.9676 48.0394 49.9896 48.463 49.9838C49.4764 49.9699 50.1067 49.2528 49.9848 48.2457ZM31.8444 24.4358C32.7532 24.6448 33.38 25.5399 33.3812 26.5735C33.3824 27.6071 32.759 28.4906 31.8444 28.7192V24.4358ZM15.0434 28.7539C14.073 28.3751 13.5344 27.599 13.5344 26.6012C13.5263 25.5745 14.0475 24.7846 15.0434 24.3827V28.7539ZM14.6116 21.0544C14.6116 20.5093 14.6464 17.1174 14.6372 16.5504C14.6372 16.518 14.6372 16.4857 14.6372 16.4545C14.6372 16.3806 14.643 16.3067 14.6499 16.2339C14.8972 13.5304 16.9715 11.1283 20.1055 11.1872C23.625 11.2518 27.1467 11.1999 30.6685 11.2033C31.6946 11.2033 32.0614 11.7588 31.676 12.7047C31.488 13.1666 31.2686 13.6193 31.0957 14.0905C30.8728 14.7026 31.1177 15.1414 31.7469 15.3216C32.2762 15.4729 32.412 15.6946 32.2019 16.2074C31.9297 16.9064 31.6173 17.5893 31.2663 18.2526C30.5455 19.56 29.4613 20.5023 27.9918 20.813C26.8181 21.0397 25.6287 21.1771 24.434 21.2241C22.8914 21.3073 21.3278 21.2091 19.8502 22.2727C19.8502 21.678 19.8687 21.2264 19.8502 20.7714C19.8165 20.0912 19.3673 19.65 18.6894 19.6916C18.0962 19.7286 17.4776 19.7736 16.9239 19.9699C16.152 20.2448 15.4346 20.6594 14.6116 21.0544ZM16.513 30.4504C16.3884 29.9469 16.3187 29.4315 16.3052 28.9132C16.2796 26.5862 16.2971 24.2591 16.2773 21.9332C16.2773 21.5359 16.4213 21.3119 16.7927 21.2241C17.2802 21.1086 17.7689 21.0012 18.2576 20.8961C18.6058 20.8211 18.7056 20.9989 18.6964 21.3107C18.6871 21.6572 18.6964 22.0037 18.6964 22.3501C18.6964 22.8583 18.9076 23.2417 19.3835 23.4542C19.8409 23.6597 20.2587 23.5616 20.6128 23.2301C21.1363 22.7428 21.7735 22.5534 22.4619 22.5095C23.907 22.4194 25.3568 22.3698 26.7997 22.252C28.0597 22.1597 29.2736 21.7417 30.3214 21.0393C30.4185 20.9888 30.5194 20.9459 30.6232 20.9112C30.6232 22.3744 30.6383 23.7371 30.6232 25.0999C30.6 26.7167 30.6859 28.3427 30.4793 29.9341C30.0463 33.2509 27.1003 35.7212 23.6308 35.8551C20.3586 35.9845 17.257 33.6355 16.513 30.4504ZM22.8728 48.1626C22.8356 48.643 22.7091 48.7954 22.2367 48.7712C21.5797 48.7365 20.9215 48.7619 20.2634 48.7619L13.8049 48.7689C13.5727 48.7134 13.2918 48.7689 13.0365 48.7608C11.8664 48.7331 11.1792 48.0321 11.1932 46.8564C11.2211 45.1011 11.7142 43.3842 12.6226 41.8792C13.531 40.3742 14.8225 39.1344 16.3667 38.285C16.3667 39.6639 16.3795 40.9112 16.3493 42.1561C16.3493 42.297 16.1171 42.4772 15.9604 42.5615C14.8681 43.1297 14.3481 44.2025 14.6325 45.3528C14.7673 45.869 15.0694 46.3267 15.492 46.6549C15.9146 46.9831 16.4342 47.1635 16.9703 47.1682C17.5068 47.1609 18.0262 46.9797 18.4498 46.6521C18.8734 46.3244 19.178 45.8683 19.3174 45.3528C19.5971 44.2152 19.0782 43.1123 17.9674 42.5811C17.6818 42.4425 17.5634 42.2947 17.5669 41.9806C17.5797 40.7102 17.5867 39.4399 17.5669 38.1695C17.5588 37.7792 17.7294 37.6048 18.0695 37.5251C18.6499 37.3911 19.2419 37.2791 19.8177 37.1197C20.239 37.0042 20.398 37.1578 20.5141 37.5493C20.9529 39.0426 21.3742 40.5451 21.8919 42.0129C22.593 44.0085 23.0388 46.0318 22.8728 48.1626ZM16.9448 43.5373C17.1087 43.5341 17.2716 43.5634 17.424 43.6234C17.5764 43.6834 17.7153 43.7729 17.8326 43.8869C17.9499 44.0008 18.0433 44.1368 18.1073 44.2869C18.1713 44.4371 18.2046 44.5984 18.2054 44.7615C18.206 45.0033 18.1348 45.2399 18.0008 45.4416C17.8668 45.6433 17.6759 45.8012 17.452 45.8954C17.2282 45.9895 16.9813 46.0158 16.7425 45.971C16.5037 45.9261 16.2835 45.8121 16.1096 45.6432C15.9357 45.4743 15.8158 45.258 15.7649 45.0216C15.714 44.7851 15.7345 44.539 15.8237 44.3141C15.9129 44.0891 16.0669 43.8954 16.2663 43.7573C16.4658 43.6191 16.7018 43.5426 16.9448 43.5373ZM23.3777 42.8444C22.771 40.878 22.1632 38.9109 21.5542 36.943H25.3487C24.7467 38.9055 24.1431 40.8688 23.5379 42.8329L23.3777 42.8444ZM33.7376 48.755C30.701 48.7619 27.664 48.7619 24.6267 48.755C24.4584 48.755 24.2889 48.7342 24.0463 48.7169C24.1392 47.1463 23.8525 45.6045 24.369 44.0732C25.0933 41.9228 25.7329 39.7459 26.3841 37.5724C26.5083 37.159 26.665 36.9869 27.1142 37.1105C27.6888 37.2733 28.275 37.383 28.8612 37.5193C29.2094 37.599 29.3696 37.7861 29.3603 38.1707C29.3348 39.1327 29.3742 40.0958 29.3336 41.0578C29.3169 41.1777 29.2742 41.2926 29.2084 41.3945C29.1427 41.4964 29.0555 41.5829 28.9529 41.648C28.0962 42.1226 27.6319 42.8086 27.6273 43.7879C27.6273 44.6933 27.6273 45.5976 27.6273 46.5019C27.6273 46.9199 27.7503 47.271 28.2077 47.2676C28.665 47.2641 28.7881 46.913 28.7881 46.4961C28.7776 45.6496 28.7764 44.8019 28.7881 43.9554C28.7997 43.14 29.2466 42.6354 29.9314 42.6331C30.6163 42.6308 31.0724 43.1343 31.0829 43.9415C31.0922 44.7692 31.0922 45.5968 31.0829 46.4245C31.0829 46.8472 31.1502 47.2491 31.6528 47.2641C32.1554 47.2791 32.2541 46.8864 32.2495 46.4557C32.2425 45.5699 32.2495 44.6853 32.2495 43.7995C32.2495 42.819 31.8084 42.0961 30.925 41.6745C30.6151 41.5267 30.5037 41.35 30.5118 41.0163C30.5327 40.1536 30.5188 39.2839 30.5188 38.2781C30.8066 38.4328 30.9831 38.509 31.1316 38.6118C33.9953 40.5497 35.5368 43.2313 35.7039 46.682C35.7689 48.0505 35.0864 48.7573 33.7376 48.7596V48.755ZM45.4915 29.486C45.4996 29.3706 45.7236 29.1869 45.8606 29.1708C46.2446 29.1438 46.6298 29.1388 47.0144 29.1558H47.6505C48.5919 29.1558 48.5907 29.1558 48.5722 30.1212C48.5524 31.1768 48.2587 32.1168 47.4601 32.8652C47.185 33.1227 46.9773 33.1631 46.6813 32.8906C45.6772 31.9586 45.4102 30.7783 45.4915 29.486ZM36.2054 29.5276C36.2112 29.3983 36.448 29.1927 36.5989 29.1719C36.9773 29.1211 37.3684 29.1558 37.7538 29.1558H38.1589C39.3394 29.1558 39.3383 29.1558 39.286 30.3603C39.2442 31.3419 38.9041 32.185 38.1787 32.8733C37.8977 33.1377 37.6877 33.1504 37.3975 32.8825C36.4143 31.9632 36.1485 30.798 36.2088 29.5276H36.2054ZM36.5199 39.5311C36.3644 37.8808 36.542 36.1993 36.5861 34.5317C36.5861 34.3504 36.6906 34.1725 36.7474 33.99C38.0382 34.4832 38.5513 34.4046 39.3522 33.2971C39.8165 32.6631 40.109 31.8859 40.347 31.1317C40.4897 30.6779 40.6255 30.4134 41.1258 30.418C41.9546 30.4261 42.7823 30.418 43.611 30.418C44.1195 30.418 44.3446 30.649 44.4236 31.1606C44.5744 32.0994 45.0355 32.9614 45.7341 33.6101C46.3795 34.2349 47.0608 34.6495 48.015 33.9438C48.1067 34.3157 48.2367 34.6033 48.2402 34.892C48.2541 36.5019 48.3737 38.1256 48.1961 39.717C47.9976 41.499 46.3737 42.8756 44.5722 42.9737C43.1637 43.0494 41.7524 43.054 40.3435 42.9876C38.3632 42.8941 36.708 41.4909 36.5234 39.5311H36.5199ZM48.2785 48.8116C47.8722 48.8024 44.8751 48.7897 44.4688 48.7977C44.4178 48.7977 44.3679 48.8012 44.3191 48.8081C44.2483 48.8081 44.1775 48.8081 44.1113 48.8081C41.7701 48.8081 39.43 48.8081 37.0887 48.8081C36.8716 48.8081 36.6534 48.777 36.5536 48.7689C36.6755 48.0032 36.9355 47.2964 36.8623 46.6243C36.7614 45.7004 37.134 45.0479 37.625 44.3607C37.9999 43.8353 38.3795 43.5835 39.0005 43.9508C39.1554 44.0323 39.3278 44.0755 39.5031 44.0766C40.9691 44.1263 42.4375 44.2106 43.9036 44.1852C44.6441 44.1713 45.3882 43.9854 46.1148 43.8122C46.4178 43.7394 46.6081 43.7337 46.8182 43.9808C47.8562 45.1856 48.5427 46.6502 48.8032 48.2157C48.8856 48.6545 48.708 48.822 48.282 48.8116H48.2785Z" fill="#39B54A"/>
<path d="M25.5995 30.8706C25.5681 30.6535 25.2919 30.3359 25.1003 30.314C24.9088 30.292 24.679 30.5808 24.4863 30.7551C24.4283 30.8083 24.441 30.9365 24.419 31.03C24.2913 31.5485 23.9407 31.8384 23.4219 31.8176C22.903 31.7968 22.5571 31.4977 22.4805 30.9676C22.4178 30.5299 22.2414 30.1973 21.7457 30.2978C21.2501 30.3983 21.2431 30.8221 21.3104 31.2217C21.4017 31.7166 21.663 32.1645 22.0497 32.4887C22.4364 32.813 22.9243 32.9934 23.43 32.9991C24.6314 33.0037 25.7492 31.9424 25.5995 30.8706Z" fill="#39B54A"/>
<path d="M21.5206 25.1725C21.6506 24.7995 21.3906 24.5558 21.018 24.4877C19.9837 24.2995 18.9518 24.2567 17.9524 24.6632C17.7783 24.7337 17.5496 24.8157 17.4777 24.9589C17.3801 25.1529 17.3151 25.4647 17.4103 25.6229C17.5055 25.7812 17.8746 25.9475 18.0197 25.8816C18.9483 25.459 19.8839 25.4693 21.0273 25.6807C21.1526 25.5583 21.4417 25.4012 21.5206 25.1725Z" fill="#39B54A"/>
<path d="M26.7241 25.5606C27.3486 25.6148 27.9859 25.6437 28.5883 25.7996C29.0062 25.907 29.3591 26.0167 29.5564 25.5536C29.7537 25.0905 29.4113 24.8134 29.0329 24.6979C28.4339 24.5131 27.8106 24.4092 27.337 24.3018C26.7346 24.3803 26.2738 24.3734 25.8686 24.5189C25.6504 24.5974 25.5204 24.9346 25.3579 25.1552C25.5843 25.3157 25.7909 25.5352 26.0439 25.6171C26.2413 25.6841 26.4989 25.5421 26.7241 25.5606Z" fill="#39B54A"/>
<path d="M27.1792 26.7744C27.0541 26.7786 26.931 26.8073 26.8171 26.8589C26.7031 26.9104 26.6005 26.9838 26.5151 27.0749C26.4297 27.166 26.3632 27.2729 26.3194 27.3896C26.2756 27.5063 26.2554 27.6304 26.2599 27.7549C26.2724 28.0015 26.3828 28.233 26.5668 28.3986C26.7509 28.5642 26.9935 28.6502 27.2413 28.6378C27.4891 28.6254 27.7219 28.5156 27.8883 28.3324C28.0547 28.1493 28.1412 27.9079 28.1287 27.6614C28.115 27.4206 28.0088 27.1942 27.8321 27.0291C27.6554 26.8641 27.4216 26.7729 27.1792 26.7744Z" fill="#39B54A"/>
<path d="M19.7283 26.7734C19.4757 26.7743 19.2336 26.874 19.0542 27.051C18.8748 27.2279 18.7726 27.468 18.7695 27.7193C18.7715 27.8437 18.7988 27.9665 18.8496 28.0802C18.9005 28.194 18.974 28.2963 19.0656 28.3811C19.1572 28.4658 19.2651 28.5313 19.3827 28.5736C19.5004 28.6158 19.6255 28.634 19.7504 28.627C19.8702 28.627 19.9889 28.6027 20.099 28.5557C20.2092 28.5087 20.3086 28.4399 20.3912 28.3535C20.4738 28.2671 20.5379 28.1649 20.5796 28.0531C20.6213 27.9413 20.6397 27.8222 20.6337 27.7031C20.6359 27.5829 20.6141 27.4634 20.5698 27.3515C20.5254 27.2396 20.4592 27.1376 20.3751 27.0512C20.291 26.9648 20.1905 26.8958 20.0795 26.8481C19.9686 26.8005 19.8492 26.7751 19.7283 26.7734Z" fill="#39B54A"/>
<path d="M41.805 41.5845C42.2019 41.432 42.5084 41.3859 42.9309 41.5649C44.0348 42.036 45.3 41.1664 45.2524 40.0277C45.2362 39.597 44.8787 39.2621 44.556 39.4318C44.354 39.5369 44.2565 39.8303 44.0917 40.0208C43.9268 40.2114 43.7818 40.4031 43.5809 40.4828C43.4649 40.5289 43.2014 40.395 43.1004 40.2668C42.8102 39.8995 43.0156 38.799 43.3999 38.5079C44.1091 37.9698 44.4736 37.2641 44.4562 36.3737C44.4434 35.6808 44.051 35.2339 43.3674 35.1958C42.7101 35.1581 42.0513 35.1581 41.3941 35.1958C40.7197 35.235 40.3227 35.7097 40.3262 36.3899C40.3262 37.211 40.6407 37.9109 41.3 38.3878C41.6993 38.6765 41.8676 38.9849 41.7852 39.3683V39.6224C41.7852 39.9896 41.8317 40.4077 41.3337 40.4885C40.8357 40.5694 40.7603 40.2206 40.6268 39.8418C40.5571 39.6443 40.1393 39.3798 40 39.4399C39.7818 39.53 39.5357 39.8649 39.5299 40.0993C39.5066 41.1999 40.7347 41.9968 41.805 41.5845ZM41.5078 36.368C41.957 36.368 42.3366 36.368 42.715 36.368C43.2745 36.3749 43.4115 36.5481 43.1329 36.9997C42.9611 37.2745 42.5838 37.6579 42.3621 37.6198C41.805 37.5274 41.5728 37.0343 41.5043 36.368H41.5078Z" fill="#39B54A"/>
<path d="M38.8866 35.9846C39.1617 35.9465 39.4043 35.674 39.662 35.5065L39.6702 35.234C39.4218 35.055 39.1931 34.772 38.9191 34.7201C38.5268 34.6438 38.2691 34.9383 38.2552 35.3356C38.2412 35.7329 38.4978 36.0389 38.8866 35.9846Z" fill="#39B54A"/>
<path d="M45.8768 35.9994C46.2796 35.9902 46.5048 35.7511 46.5141 35.1332C46.3504 35.027 46.1101 34.7579 45.8385 34.7221C45.4485 34.6713 45.2047 34.96 45.2128 35.3711C45.221 35.7823 45.4787 36.0086 45.8768 35.9994Z" fill="#39B54A"/>
</g>
<defs>
<clipPath id="clip0_69_272">
<rect width="40" height="40" fill="white" transform="translate(10 10)"/>
</clipPath>
</defs>
</svg>
