<svg width="60" height="60" viewBox="0 0 60 60" fill="none" xmlns="http://www.w3.org/2000/svg">
<circle opacity="0.2" cx="30" cy="30" r="30" fill="#FECB2F"/>
<g clip-path="url(#clip0_69_288)">
<path d="M25.9451 29.3937C20.7195 32.3282 14.0173 29.871 11.6174 24.1822C10.4294 21.3646 10.0954 18.3954 10.0119 15.3797C9.98685 14.4704 10.0083 13.5598 10.0083 12.506C11.2226 12.5967 12.3736 12.6063 13.4984 12.7817C16.7189 13.2865 19.8273 14.1481 22.6638 15.8105C24.9539 17.1531 26.8385 18.8931 27.6353 21.5149C28.308 23.7466 28.4082 25.9794 27.083 28.0714C27.0043 28.1967 26.9637 28.4366 27.0281 28.5488C27.9281 30.0279 28.5068 31.6799 28.7267 33.3975L35.4659 29.6741C35.052 29.4725 34.7896 29.3555 34.5379 29.2183C32.0665 27.8673 30.7544 25.7825 30.6459 22.9637C30.6053 21.8956 30.6387 20.8264 30.6387 19.6974C32.9289 19.5673 34.8409 20.2607 36.3963 21.8622C37.9517 23.4637 38.5063 25.4078 38.3763 27.6024C40.8048 26.8935 44.2579 22.5353 44.1398 20.3442C43.7367 20.2476 43.3144 20.1616 42.9005 20.0435C41.4156 19.629 40.107 18.7398 39.1744 17.5116C38.2419 16.2834 37.7366 14.7836 37.7358 13.2412C37.7286 12.1898 37.7358 11.1384 37.7358 10.0286C39.4868 9.8961 41.0505 10.2947 42.4437 11.2888C44.4165 12.7018 45.4256 14.647 45.4805 17.0767C45.4996 17.9515 45.4543 18.8274 45.4901 19.7022C45.5618 21.163 45.168 22.6089 44.3653 23.8313C44.314 23.9101 44.2758 23.9972 44.1708 24.1893C44.7052 24.1893 45.1513 24.1774 45.5962 24.1893C46.2138 24.2089 46.821 24.354 47.3808 24.6158C47.9406 24.8777 48.4412 25.2508 48.8522 25.7125C49.2632 26.1742 49.576 26.7147 49.7714 27.3012C49.9669 27.8877 50.041 28.5079 49.9892 29.124C49.969 29.2041 49.9411 29.282 49.9057 29.3567C48.5567 29.3567 47.1886 29.4176 45.8276 29.334C45.0141 29.2851 44.141 29.1562 43.4277 28.7982C42.6787 28.4211 42.0882 27.7241 41.4179 27.1644L36.4571 30.6456C37.2813 30.6456 37.9791 30.6551 38.6781 30.6456C39.9723 30.616 41.2603 30.8348 42.4723 31.29C46.3942 32.771 49.0744 36.9192 48.6533 40.9445C48.4768 40.9552 48.2883 40.9767 48.0987 40.9767C45.9123 40.9767 43.7259 40.9887 41.5384 40.9767C39.3947 40.9553 37.3184 40.2242 35.6339 38.8974C33.9495 37.5707 32.7516 35.7232 32.2275 33.6434C32.1846 33.4763 32.1154 33.314 32.0355 33.0825L24.8322 36.9276L24.8239 37.0875C28.4165 37.0242 31.556 38.1341 34.099 40.6676C36.642 43.2012 37.824 46.3231 37.7322 49.9331C37.6468 49.9681 37.5575 49.9926 37.4662 50.0059C35.0055 49.9594 32.5257 50.0763 30.0864 49.8221C25.3344 49.3257 21.0213 45.2491 20.005 40.5567C19.9609 40.3526 19.8977 40.1521 19.8416 39.9421C16.7988 41.1927 13.7465 44.6082 13.1716 47.3816H11.9585C11.9716 45.3529 13.0785 43.8743 14.3441 42.4553C14.2946 42.3884 14.2378 42.3272 14.1747 42.2727C12.5919 41.2667 11.8762 39.812 11.9382 37.9443C11.9681 37.0374 11.9442 36.1292 11.9442 35.19C13.4256 35.0623 14.6518 35.4406 15.6824 36.406C16.713 37.3715 17.1233 38.5995 17.1257 40.09C17.6028 39.769 17.9761 39.4826 18.3805 39.2547C21.199 37.6233 24.0152 35.9884 26.8492 34.3928C27.312 34.1326 27.4456 33.8558 27.3991 33.3605C27.2822 32.0919 26.6488 30.2995 25.9451 29.3937ZM25.2819 28.1275C24.4303 27.1489 23.612 26.2288 22.8236 25.2884C22.7027 25.1343 22.5459 25.0123 22.3667 24.9333C22.1876 24.8542 21.9918 24.8204 21.7966 24.8349C19.8094 24.8588 17.8222 24.8457 15.8327 24.8445C15.6251 24.8445 15.4164 24.8254 15.2172 24.8159V23.5151H21.0618C20.1315 22.6976 19.3609 21.9827 18.5439 21.3264C18.2684 21.117 17.9353 20.9974 17.5897 20.9839C16.1583 20.9481 14.727 20.9684 13.2813 20.9684V19.6389H16.5173C15.5631 18.8036 14.7282 18.0875 13.8932 17.3572C13.6356 17.134 13.3302 16.9216 13.7584 16.5636C14.0829 16.2879 14.2737 15.8941 14.795 16.4048C15.68 17.2701 16.6664 18.0326 17.7447 18.9503V17.1376H19.0103C19.021 17.3106 19.0341 17.4455 19.0353 17.5815C19.046 18.3751 18.823 19.2761 19.126 19.9349C19.4385 20.6139 20.2627 21.0579 20.8615 21.6056C21.1119 21.8336 21.3577 22.0651 21.6117 22.2883C21.731 22.3957 21.8706 22.4875 22.0745 22.6463C22.1485 21.5985 22.2153 20.6593 22.2868 19.6628L23.5488 19.7272C23.4844 21.0089 23.4009 22.2155 23.3806 23.4267C23.3876 23.7496 23.498 24.0616 23.6955 24.317C24.3635 25.1524 25.0875 25.9496 25.7757 26.7718C25.8723 26.8912 25.8867 27.0714 25.9391 27.2229L26.1896 27.0439C26.3007 26.8386 26.396 26.6252 26.4747 26.4054C27.1665 23.9447 26.7276 21.6868 25.2008 19.6473C24.2919 18.4324 23.0943 17.5469 21.7823 16.8154C19.0747 15.2986 16.1333 14.505 13.0929 14.0348C12.5179 13.9453 11.9359 13.9095 11.2929 13.8414C11.3061 17.5004 11.4933 21.0018 13.0821 24.2562C13.9719 26.0808 15.3079 27.489 17.1662 28.3519C18.8969 29.155 20.7374 29.4259 22.6244 29.3293C23.5977 29.2803 24.472 28.9235 25.2819 28.1275ZM36.4046 48.7254C36.4046 48.5249 36.413 48.4271 36.4046 48.3316C36.0027 43.9554 32.9014 40.1664 28.6957 38.8668C26.6154 38.2236 24.4839 38.4181 22.3644 38.4014C22.2165 38.4014 22.0674 38.5279 21.8682 38.6174C22.7687 39.8347 23.9555 40.5507 25.1543 41.256C25.4596 41.435 25.6851 41.4004 25.9666 41.2226C26.6369 40.7977 27.3192 40.3872 28.0134 40.0041C28.141 39.9325 28.4297 39.9337 28.5 40.0196C28.704 40.2702 28.834 40.5793 29.0058 40.8872L26.9542 42.151C27.5053 42.4148 27.9478 42.5615 28.314 42.8169C29.1489 43.4017 29.9075 43.317 30.7592 42.7907C31.6717 42.2286 31.7134 42.2895 32.113 43.3014C32.1229 43.3667 32.1229 43.4331 32.113 43.4984L31.0323 44.138C32.472 44.9901 33.8246 45.7777 34.9077 46.9484L34.0978 47.754L30.4836 45.2479L30.3453 45.3827C30.4228 45.7789 30.5015 46.1751 30.5838 46.6191L29.3696 46.9294C29.1871 46.2133 29.0296 45.5581 28.8507 44.9101C28.7994 44.7276 28.7314 44.4793 28.5907 44.403C28.0277 44.0927 27.4349 43.8373 26.6918 43.4864C26.9447 44.1798 27.1367 44.7025 27.3323 45.2371C27.0938 45.3433 26.928 45.4042 26.7753 45.4913C26.3232 45.7503 26.0596 45.6488 25.9189 45.1273C25.8151 44.7466 25.5908 44.3994 25.4883 44.0187C25.2199 43.0246 24.6533 42.3634 23.7086 41.8765C22.8451 41.429 22.1055 40.7416 21.2777 40.1354C21.2896 40.294 21.3127 40.4515 21.3469 40.6068C22.3854 44.0787 24.5722 46.5204 27.9072 47.9318C30.6471 49.0882 33.5097 48.5989 36.4046 48.7254ZM45.966 37.8142C45.7584 38.0661 45.6547 38.1806 45.5652 38.3047C45.2348 38.7606 44.9688 38.7821 44.4798 38.3942C43.7138 37.7647 42.8748 37.2298 41.9809 36.8011C40.4303 36.085 38.8117 35.5396 37.2431 34.8702C35.974 34.3272 34.7383 33.7066 33.4489 33.1039C33.4835 33.265 33.5121 33.4536 33.5622 33.6362C34.4866 37.0111 37.7942 39.6031 41.3082 39.6688C43.1749 39.7034 45.0428 39.6783 46.9142 39.6759C47.0608 39.6656 47.2066 39.646 47.3508 39.6175C47.1981 36.4848 44.9294 33.4846 41.8378 32.4571C40.8776 32.1361 39.8243 32.0227 38.8045 31.9631C37.4089 31.8831 36.0038 31.944 34.6035 31.944C34.6746 32.1415 34.8195 32.3037 35.0079 32.3963C35.9371 32.8426 36.8603 33.3044 37.8073 33.709C39.612 34.4799 41.462 35.1518 43.2309 35.9943C44.1923 36.4502 45.0284 37.1782 45.966 37.8142ZM39.1182 11.3998C38.2522 14.9441 40.9587 19.0112 44.1172 18.911C44.7899 15.11 42.3793 11.4881 39.1182 11.3998ZM32.0092 21.0984C31.2351 24.724 33.7113 28.4521 36.9927 28.5989C37.904 25.144 35.1093 20.9373 32.0092 21.0984ZM48.5269 28.0476C48.4207 26.8017 47.259 25.6608 45.9028 25.5271C45.0296 25.4591 44.1529 25.4503 43.2786 25.5009C42.7097 25.5223 42.452 26.0856 42.7526 26.557C43.3001 27.4127 44.0897 27.9569 45.0893 28.0296C46.2224 28.1108 47.3568 28.0476 48.5269 28.0476ZM13.1573 36.5731C13.2443 37.5708 13.2384 38.5088 13.4304 39.4026C13.6189 40.2726 14.2654 40.8813 15.0633 41.2775C15.5142 41.5006 15.7885 41.3383 15.8052 40.8299C15.8256 40.3527 15.822 39.8748 15.7945 39.3979C15.6991 38.0303 14.6304 36.8202 13.1573 36.5731Z" fill="#39B54A"/>
</g>
<defs>
<clipPath id="clip0_69_288">
<rect width="40" height="40" fill="white" transform="translate(10 10)"/>
</clipPath>
</defs>
</svg>
