<svg width="50" height="44" viewBox="0 0 50 44" fill="none" xmlns="http://www.w3.org/2000/svg">
<path d="M49.9798 25.2067V25.9177C49.9798 30.7346 49.9798 35.5516 49.9798 40.3686C49.9798 42.594 48.7221 43.8556 46.4898 43.857C32.171 43.857 17.8516 43.857 3.53182 43.857C1.24755 43.8556 0 42.607 0 40.3324C0 35.5155 0 30.6985 0 25.8816V25.107H0.853356C8.67554 25.107 16.4972 25.1027 24.3185 25.094C24.9163 25.094 25.2686 25.2761 25.618 25.7674C27.7839 28.8642 30.715 31.1142 33.8787 33.0911C34.2637 33.3329 34.6569 33.5661 35.0583 33.7905C36.6827 34.7067 38.3187 34.7197 39.9301 33.7819C43.6843 31.5983 47.1497 29.0738 49.6318 25.4177C49.6715 25.3581 49.7202 25.3049 49.7762 25.2602C49.8036 25.2371 49.8527 25.2385 49.9798 25.2067ZM10.9391 31.357C9.95293 31.357 8.96529 31.3483 7.97909 31.357C6.95102 31.37 6.26083 32.0015 6.2565 32.9076C6.25217 33.8136 6.93081 34.4639 7.97187 34.4726C9.94427 34.4899 11.9176 34.4899 13.8919 34.4726C14.9316 34.4654 15.6102 33.8295 15.6116 32.9206C15.6131 32.0116 14.9186 31.3758 13.8977 31.357C12.9115 31.357 11.9253 31.357 10.9391 31.357Z" fill="#6BDBD8"/>
<path d="M49.9797 11.0969C50.0534 13.4697 49.9624 16.396 49.1264 19.2529C47.9713 23.1937 45.4877 26.1489 42.2548 28.5318C41.0376 29.4278 39.7308 30.2038 38.4616 31.0289C37.9201 31.3787 37.3426 31.4972 36.7563 31.1619C33.457 29.2717 30.3858 27.1041 28.1289 23.9596C25.963 20.935 25.1314 17.4827 25.0187 13.844C24.9436 11.4379 25.0057 9.02895 24.9826 6.61854C24.974 5.73704 25.358 5.159 26.1536 4.81796C29.6191 3.33242 33.0845 1.84349 36.5499 0.351202C36.8443 0.21536 37.1649 0.145619 37.4892 0.146867C37.8135 0.148115 38.1335 0.220322 38.427 0.358427C41.8683 1.84783 45.313 3.3276 48.7611 4.79773C49.6144 5.16189 50.0187 5.75294 49.9884 6.70091C49.9494 7.97114 49.9797 9.24715 49.9797 11.0969ZM36.043 16.2052C35.3471 15.172 34.7262 14.2313 34.0836 13.3064C33.7082 12.7674 33.1682 12.5159 32.517 12.6431C31.8658 12.7703 31.3619 13.185 31.3157 13.8281C31.2965 14.3453 31.4306 14.8566 31.7012 15.2977C32.5675 16.7081 33.5176 18.0723 34.4446 19.448C35.2994 20.7139 36.4011 20.7486 37.3686 19.5376C39.2938 17.1359 41.2166 14.7322 43.137 12.3266C43.276 12.1609 43.4011 11.984 43.511 11.7977C43.6985 11.4842 43.7649 11.1128 43.6976 10.7537C43.6303 10.3946 43.434 10.0725 43.1457 9.84831C42.8652 9.61501 42.5106 9.48983 42.1459 9.4954C41.7813 9.50097 41.4306 9.63691 41.1574 9.87866C40.9647 10.0599 40.7888 10.2582 40.6318 10.4711C39.1301 12.344 37.6314 14.2211 36.043 16.2052Z" fill="#6BDBD8"/>
<path d="M0.0174091 18.8007C0.0174091 16.5752 -0.0316841 14.4105 0.0361801 12.2501C0.0809415 10.8281 1.35881 9.64892 2.83882 9.50442C3.12697 9.48074 3.41611 9.47157 3.70518 9.47696C9.45293 9.47696 15.2016 9.47696 20.9513 9.47696H21.7166C21.9144 12.6374 22.1036 15.6981 22.2942 18.8021L0.0174091 18.8007Z" fill="#6BDBD8"/>
</svg>
