<svg width="46" height="34" viewBox="0 0 46 34" fill="none" xmlns="http://www.w3.org/2000/svg">
<path d="M39.6666 8.66671H33.4166V0.333374H4.24992C1.95825 0.333374 0.083252 2.20837 0.083252 4.50004V27.4167H4.24992C4.24992 30.875 7.04158 33.6667 10.4999 33.6667C13.9583 33.6667 16.7499 30.875 16.7499 27.4167H29.2499C29.2499 30.875 32.0416 33.6667 35.4999 33.6667C38.9583 33.6667 41.7499 30.875 41.7499 27.4167H45.9166V17L39.6666 8.66671ZM10.4999 30.5417C8.77075 30.5417 7.37492 29.1459 7.37492 27.4167C7.37492 25.6875 8.77075 24.2917 10.4999 24.2917C12.2291 24.2917 13.6249 25.6875 13.6249 27.4167C13.6249 29.1459 12.2291 30.5417 10.4999 30.5417ZM38.6249 11.7917L42.7082 17H33.4166V11.7917H38.6249ZM35.4999 30.5417C33.7708 30.5417 32.3749 29.1459 32.3749 27.4167C32.3749 25.6875 33.7708 24.2917 35.4999 24.2917C37.2291 24.2917 38.6249 25.6875 38.6249 27.4167C38.6249 29.1459 37.2291 30.5417 35.4999 30.5417Z" fill="#6BDBD8"/>
</svg>
