<svg width="50" height="50" viewBox="0 0 50 50" fill="none" xmlns="http://www.w3.org/2000/svg">
<path d="M24.974 -0.000113141C38.7534 -0.0116715 49.9913 11.1999 50 24.9732C50.0087 38.7464 38.8011 49.9898 25.026 49.9999C11.2509 50.01 0.0115676 38.7999 8.92911e-06 25.0266C-0.0115498 11.2534 11.2004 0.0114452 24.974 -0.000113141ZM30.2289 45.8273C31.5679 45.8214 32.8527 45.2975 33.814 44.3653C34.7753 43.4332 35.3385 42.1651 35.3855 40.8269C35.4346 39.1668 35.3739 37.5039 35.4231 35.8453C35.4635 35.4313 35.6131 35.0354 35.8565 34.6981C36.2524 34.0985 36.761 33.5726 37.1728 32.9831C37.5845 32.3936 37.4805 31.8042 36.9763 31.4574C36.472 31.1107 35.9764 31.219 35.5314 31.7608C35.4086 31.9053 35.3046 32.0729 35.1933 32.2289C30.2043 39.2347 19.8275 39.2376 14.8356 32.2362C14.692 32.014 14.5306 31.8038 14.353 31.6077C13.9687 31.2219 13.5237 31.1266 13.0527 31.456C12.5816 31.7854 12.5022 32.2246 12.7073 32.7274C12.7965 32.924 12.908 33.1097 13.0397 33.2807C15.7444 37.0806 19.4244 39.1871 24.0739 39.5208C24.8671 39.5786 25.0419 39.8184 25.039 40.5813C25.0331 41.2671 25.1629 41.9473 25.4209 42.5828C25.679 43.2183 26.0601 43.7964 26.5425 44.284C27.0248 44.7716 27.5989 45.159 28.2315 45.4239C28.8642 45.6887 29.543 45.8258 30.2289 45.8273ZM18.7439 17.7391C18.7506 17.1237 18.575 16.5202 18.2391 16.0045C17.9032 15.4889 17.4221 15.0843 16.8564 14.8419C16.2908 14.5994 15.6661 14.5299 15.061 14.6421C14.4559 14.7543 13.8976 15.0432 13.4566 15.4723C13.0155 15.9015 12.7115 16.4517 12.5828 17.0535C12.4541 17.6552 12.5066 18.2817 12.7335 18.8537C12.9605 19.4257 13.3518 19.9176 13.8581 20.2675C14.3644 20.6173 14.9629 20.8094 15.5782 20.8194C15.9885 20.8257 16.3961 20.7509 16.7774 20.5994C17.1588 20.4479 17.5065 20.2226 17.8006 19.9364C18.0947 19.6503 18.3294 19.3088 18.4913 18.9318C18.6531 18.5547 18.739 18.1494 18.7439 17.7391ZM34.3654 14.6097C33.7521 14.6128 33.1535 14.7975 32.6451 15.1404C32.1366 15.4834 31.7411 15.9692 31.5085 16.5366C31.2758 17.1041 31.2164 17.7277 31.3378 18.3289C31.4591 18.93 31.7558 19.4818 32.1904 19.9145C32.625 20.3473 33.178 20.6416 33.7796 20.7605C34.3813 20.8793 35.0047 20.8173 35.5712 20.5823C36.1377 20.3473 36.6219 19.9498 36.9627 19.4399C37.3035 18.9301 37.4857 18.3307 37.4863 17.7174C37.4832 16.8919 37.153 16.1012 36.568 15.5187C35.9831 14.9362 35.191 14.6093 34.3654 14.6097Z" fill="#6BDBD8"/>
</svg>
